<?xml version="1.0" encoding="utf-8"?>
<!-- Generator: Adobe Illustrator 23.0.1, SVG Export Plug-In . SVG Version: 6.00 Build 0)  -->
<svg version="1.1" id="Layer_1" xmlns="http://www.w3.org/2000/svg" xmlns:xlink="http://www.w3.org/1999/xlink" x="0px" y="0px"
	 viewBox="0 0 16 16" style="enable-background:new 0 0 16 16;" xml:space="preserve">
<style type="text/css">
	.st0{fill:#9E128F;}
</style>
<path class="st0" d="M6.5,7.1C6.9,6.8,7.4,6.5,8,6.5c0.6,0,1.1,0.3,1.5,0.6c0.2,0.2,0.3,0.3,0.4,0.5C10,7.6,10,7.7,10.1,7.7l0,0
	C10.2,7.9,10.3,8,10.5,8c0.2,0,0.3-0.1,0.4-0.2l0,0c0,0,0.1-0.1,0.1-0.1c0.1-0.1,0.3-0.3,0.4-0.5c0.4-0.3,0.9-0.6,1.5-0.6
	s1.1,0.3,1.5,0.6c0.2,0.2,0.3,0.3,0.4,0.5C15,7.6,15,7.7,15.1,7.7l0,0C15.2,8,15.4,8,15.6,8C15.9,7.9,16,7.7,16,7.5
	C16,3.7,12.8,0,8,0C3.2,0,0,3.7,0,7.5C0,7.7,0.1,7.9,0.4,8C0.6,8,0.8,8,0.9,7.8l0,0c0,0,0.1-0.1,0.1-0.1c0.1-0.1,0.3-0.3,0.4-0.5
	C1.9,6.8,2.4,6.5,3,6.5s1.1,0.3,1.5,0.6c0.2,0.2,0.3,0.3,0.4,0.5C5,7.6,5,7.7,5.1,7.7l0,0C5.2,7.9,5.3,8,5.5,8
	c0.2,0,0.3-0.1,0.4-0.2l0,0c0,0,0.1-0.1,0.1-0.1C6.2,7.5,6.3,7.3,6.5,7.1z M8,7.5c-0.2,0-0.3,0-0.5,0.1v6.1c0,0.7-0.6,1.3-1.3,1.3
	S5,14.4,5,13.8v-0.3C5,13.2,4.8,13,4.5,13S4,13.2,4,13.5v0.3C4,15,5,16,6.3,16s2.3-1,2.3-2.3V7.6C8.3,7.5,8.2,7.5,8,7.5z"/>
</svg>
