<?xml version="1.0" encoding="utf-8"?>
<!-- Generator: Adobe Illustrator 23.0.1, SVG Export Plug-In . SVG Version: 6.00 Build 0)  -->
<svg version="1.1" id="Layer_1" xmlns="http://www.w3.org/2000/svg" xmlns:xlink="http://www.w3.org/1999/xlink" x="0px" y="0px"
	 viewBox="0 0 980 980.1" style="enable-background:new 0 0 980 980.1;" xml:space="preserve">
<style type="text/css">
	.st0{fill:#12AB73;}
</style>
<g>
	<g transform="translate(0.000000,511.000000) scale(0.100000,-0.100000)">
		<path class="st0" d="M4549.8,5091.5c-950.1-64.8-1853.7-409.2-2660-1017c-220.8-166.1-719.2-670.6-897.5-909.6
			C82.8,1947.4-219.1,432,159.7-1038.8c160-628,514.6-1329,935.9-1849.6c166.1-204.6,512.5-549,721.2-717.2
			c877.2-703,1965.1-1085.9,3081.3-1085.9c751.6,0,1493.1,174.2,2163.6,506.5c524.7,261.3,909.6,536.9,1320.9,950.1
			c1002.9,1009,1527.6,2457.5,1397.9,3861.4C9646.8,2073,8911.4,3357.4,7738.4,4196.1C6992.9,4728.9,6144,5028.7,5202,5093.6
			C4882,5115.8,4892.2,5115.8,4549.8,5091.5z M5252.8,4181.9C6832.9,4034,8170,2978.5,8674.4,1485.5
			C9213.3-114.9,8706.8-1847,7388-2908.6c-925.8-743.5-2141.3-1033.2-3318.4-790.1c-1227.7,255.3-2297.3,1124.4-2818,2287.2
			c-553,1233.7-429.4,2692.3,322.2,3822.8C2386.2,3630.8,3810.3,4315.6,5252.8,4181.9z"/>
		<path class="st0" d="M4634.9,2968.4v-279.6l-123.6-14.2c-68.9-8.1-208.7-36.5-312-62.8c-571.3-143.8-931.9-433.5-1075.7-861
			c-46.6-139.8-52.7-526.7-10.1-678.7c133.7-474,530.8-808.3,1324.9-1116.3l196.5-75v-565.2v-563.2h-58.8
			c-109.4,0-516.6,79-777.9,149.9c-200.6,56.7-530.8,174.2-707,251.2c-10.1,4.1-16.2-206.6-16.2-468v-478.1l158-58.8
			c334.3-129.7,763.8-216.8,1171-241.1l230.9-12.1v-362.6v-360.6h253.2h253.2v372.8v370.7l137.8,14.2
			c216.8,20.3,504.5,105.4,731.3,216.8c457.8,224.9,709.1,611.8,711.1,1094c0,399.1-149.9,694.9-488.2,948.1
			c-164.1,125.6-547,322.1-893.4,459.9l-198.5,79v540.9v542.9l56.7-10.1c30.4-4.1,149.9-24.3,267.4-42.5
			c200.5-30.4,587.5-135.7,745.5-202.6c40.5-16.2,79-22.3,87.1-14.2c12.2,14.2,101.3,226.9,301.9,737.4l38.5,95.2l-186.4,70.9
			c-336.3,127.6-743.5,214.7-1142.6,249.2l-168.1,14.2v269.4v271.5h-253.2H4635L4634.9,2968.4L4634.9,2968.4z M4634.9,1365.9
			c0-233-6.1-425.4-12.2-425.4c-28.4,0-249.2,127.6-316,182.3c-180.3,147.9-184.3,419.4-12.1,547c58.8,42.5,253.2,117.5,316,119.5
			C4628.8,1791.4,4634.9,1694.1,4634.9,1365.9z M5358.1-437.1c192.5-119.5,251.2-190.4,265.4-324.1c12.1-133.7-24.3-230.9-123.6-314
			c-64.8-56.7-285.7-151.9-350.5-151.9c-4,0-8.1,200.6-8.1,445.7c0,350.5,6.1,445.7,26.3,445.7
			C5181.8-335.8,5269-382.4,5358.1-437.1z"/>
	</g>
</g>
</svg>
