<?xml version="1.0" encoding="utf-8"?>
<!-- Generator: Adobe Illustrator 23.0.1, SVG Export Plug-In . SVG Version: 6.00 Build 0)  -->
<svg version="1.1" id="Layer_1" xmlns="http://www.w3.org/2000/svg" xmlns:xlink="http://www.w3.org/1999/xlink" x="0px" y="0px"
	 viewBox="0 0 37 29.7" style="enable-background:new 0 0 37 29.7;" xml:space="preserve">
<style type="text/css">
	.st0{fill:none;}
</style>
<path d="M3,12c-1.7,0-3,1.3-3,3s1.3,3,3,3s3-1.3,3-3S4.7,12,3,12z M3,0C1.3,0,0,1.3,0,3s1.3,3,3,3s3-1.3,3-3S4.7,0,3,0z M3,24.3
	c-1.5,0-2.7,1.2-2.7,2.7s1.2,2.7,2.7,2.7s2.7-1.2,2.7-2.7S4.5,24.3,3,24.3z M9,29h28v-4H9V29z M9,17h28v-4H9V17z M9,1v4h28V1H9z"/>
<path class="st0" d="M-5-9h48v48H-5V-9z"/>
</svg>
