<?xml version="1.0" encoding="utf-8"?>
<!-- Generator: Adobe Illustrator 23.0.1, SVG Export Plug-In . SVG Version: 6.00 Build 0)  -->
<svg version="1.1" id="Layer_1" xmlns="http://www.w3.org/2000/svg" xmlns:xlink="http://www.w3.org/1999/xlink" x="0px" y="0px"
	 viewBox="0 0 28 22.5" style="enable-background:new 0 0 28 22.5;" xml:space="preserve">
<style type="text/css">
	.st0{fill:#00A573;}
</style>
<title></title>
<g>
	<path class="st0" d="M22.1,3.9V1.6c0-0.9-0.7-1.6-1.6-1.6H1.6C0.7,0,0,0.7,0,1.6V15c0,0.9,0.7,1.6,1.6,1.6h2.3V7.9c0-2.2,1.8-4,4-4
		H22.1z"/>
	<path class="st0" d="M26,5.9H7.9c-1.1,0-2,0.9-2,2v12.6c0,1.1,0.9,2,2,2H26c1.1,0,2-0.9,2-2V7.9C28,6.8,27.1,5.9,26,5.9z
		 M23.3,17.6H10.6c-0.6,0-1-0.4-1-1s0.4-1,1-1h12.6c0.6,0,1,0.4,1,1S23.8,17.6,23.3,17.6z M23.3,12.8H10.6c-0.6,0-1-0.4-1-1
		s0.4-1,1-1h12.6c0.6,0,1,0.4,1,1S23.8,12.8,23.3,12.8z"/>
</g>
</svg>
