<?xml version="1.0" encoding="utf-8"?>
<!-- Generator: Adobe Illustrator 23.0.1, SVG Export Plug-In . SVG Version: 6.00 Build 0)  -->
<svg version="1.1" id="Capa_1" xmlns="http://www.w3.org/2000/svg" xmlns:xlink="http://www.w3.org/1999/xlink" x="0px" y="0px"
	 viewBox="0 0 217.9 217.9" style="enable-background:new 0 0 217.9 217.9;" xml:space="preserve">
<style type="text/css">
	.st0{fill:#009187;}
</style>
<path class="st0" d="M215.7,53.5L164.3,2.2C162.9,0.8,161,0,159,0s-3.9,0.8-5.3,2.2L3.8,152.1c-1.3,1.4-2.1,3.2-2.2,5.1l-1.6,53
	c-0.1,2.1,0.7,4.1,2.2,5.5c1.4,1.4,3.3,2.2,5.3,2.2c0.1,0,0.2,0,0.2,0l53-1.6c1.9-0.1,3.7-0.8,5.1-2.2L215.7,64.2
	C218.6,61.2,218.6,56.5,215.7,53.5z M57.3,201.3l-42,1.3l1.3-42l91.1-91.1l40.8,40.7L57.3,201.3z M159,99.6l-40.8-40.7L159,18.1
	l40.7,40.7L159,99.6z"/>
</svg>
