<?xml version="1.0" encoding="utf-8"?>
<!-- Generator: Adobe Illustrator 23.0.1, SVG Export Plug-In . SVG Version: 6.00 Build 0)  -->
<svg version="1.1" id="Layer_1" xmlns="http://www.w3.org/2000/svg" xmlns:xlink="http://www.w3.org/1999/xlink" x="0px" y="0px"
	 viewBox="0 0 122 126" style="enable-background:new 0 0 122 126;" xml:space="preserve">
<style type="text/css">
	.st0{fill:#12AB73;}
</style>
<g>
	<g>
		<path class="st0" d="M21,26c-7.2,0-13-5.8-13-13S13.8,0,21,0s13,5.8,13,13S28.2,26,21,26z M21,6c-3.9,0-7,3.1-7,7s3.1,7,7,7
			s7-3.1,7-7S24.9,6,21,6z"/>
	</g>
	<g>
		<path class="st0" d="M102,76c-5.5,0-10-4.5-10-10s4.5-10,10-10s10,4.5,10,10S107.5,76,102,76z M102,62c-2.2,0-4,1.8-4,4s1.8,4,4,4
			s4-1.8,4-4S104.2,62,102,62z"/>
	</g>
	<g>
		<path class="st0" d="M60,26c-7.2,0-13-5.8-13-13S52.8,0,60,0s13,5.8,13,13S67.2,26,60,26z M60,6c-3.9,0-7,3.1-7,7s3.1,7,7,7
			s7-3.1,7-7S63.9,6,60,6z"/>
	</g>
	<path class="st0" d="M121.9,106.5l-1.8-9.7c-1.6-8.7-8.5-15.2-17.3-16.3c-10.7-1.3-19-9.7-20.1-20.4l-1.1-10.4
		C80.6,38.5,71.2,30,59.9,30c-4.7,0-9.1,1.4-12.9,4.2c-1.3,1-1.6,2.8-0.7,4.2s2.8,1.6,4.2,0.7c2.7-2,6-3,9.4-3
		c8.2,0,15,6.1,15.8,14.3l1.1,10.4c0.9,8.6,5.5,16,12.1,20.7V97c0,3.7,1.5,7,4,9.3l1.1,16.9c0.1,1.6,1.4,2.8,3,2.8
		c0.1,0,0.1,0,0.2,0c1.7-0.1,2.9-1.5,2.8-3.2l-0.8-13.1c0.9,0.2,1.8,0.3,2.8,0.3h2.8l-0.8,12.8c-0.1,1.7,1.2,3.1,2.8,3.2
		c0.1,0,0.1,0,0.2,0c1.6,0,2.9-1.2,3-2.8l1-16c0.1-0.8-0.2-1.6-0.8-2.2s-1.4-1-2.2-1h-6c-3.9,0-7-3.1-7-7V84.7
		c2.3,0.9,4.7,1.5,7.2,1.8c6.1,0.7,11,5.3,12.1,11.4l1.8,9.7c0.3,1.4,1.5,2.5,2.9,2.5c0.2,0,0.4,0,0.5-0.1
		C121.2,109.7,122.3,108.1,121.9,106.5z"/>
	<path class="st0" d="M73,74c-1.7,0-3,1.3-3,3v17H50c0-1.7-1.3-3-3-3s-3,1.3-3,3c0,3.3,2.7,6,6,6h0.2l1.8,23.2
		c0.1,1.6,1.4,2.8,3,2.8c0.1,0,0.2,0,0.2,0c1.7-0.1,2.9-1.6,2.8-3.2L56.2,100h7.5L62,122.8c-0.1,1.7,1.1,3.1,2.8,3.2
		c0.1,0,0.2,0,0.2,0c1.6,0,2.9-1.2,3-2.8l1.8-23.2H70c3.3,0,6-2.7,6-6V77C76,75.3,74.7,74,73,74z"/>
	<path class="st0" d="M43.8,49.7C42.6,38.5,33.2,30,21.9,30C9.8,30,0,39.8,0,51.9V81c0,3.9,2.5,7.3,6,8.5V117c0,5,4,9,9,9
		c2.3,0,4.4-0.9,6-2.3c1.6,1.4,3.7,2.3,6,2.3c5,0,9-4,9-9V91c0-1.7-1.3-3-3-3s-3,1.3-3,3v26c0,1.7-1.3,3-3,3s-3-1.3-3-3V81
		c0-1.7-1.3-3-3-3s-3,1.3-3,3v36c0,1.7-1.4,3-3,3s-3-1.3-3-3V87c0-1.7-1.3-3-3-3c-1.6,0-3-1.3-3-3V51.9C6,43.2,13.1,36,21.9,36
		c8.1,0,14.9,6.1,15.8,14.1V81c0,1.7,1.3,3,3,3s3-1.3,3-3V50C43.8,49.9,43.8,49.8,43.8,49.7z"/>
</g>
</svg>
