<?xml version="1.0" encoding="utf-8"?>
<!-- Generator: Adobe Illustrator 23.0.1, SVG Export Plug-In . SVG Version: 6.00 Build 0)  -->
<svg version="1.1" id="Layer_1" xmlns="http://www.w3.org/2000/svg" xmlns:xlink="http://www.w3.org/1999/xlink" x="0px" y="0px"
	 viewBox="0 0 285.3 406.3" style="enable-background:new 0 0 285.3 406.3;" xml:space="preserve">
<style type="text/css">
	.st0{fill:#12AB73;}
</style>
<g id="Cutlery">
	<path class="st0" d="M108.2,10.6c-5.5,0-10,4.5-10,10v70.7H20V20.6c0-5.5-4.5-10-10-10c-5.5,0-10,4.5-10,10v90.2
		c0,11.6,3.5,22.9,10,32.5c9,13.4,23.1,22.6,39.1,25.4v45.6c-8.5,1.7-16.5,5.7-23.1,11.4c-2.2,1.9-3.5,4.7-3.5,7.6v136.5
		c0,20.2,16.3,36.6,36.5,36.6c20.2,0,36.6-16.3,36.6-36.5c0,0,0-0.1,0-0.1V233.2c0-2.9-1.3-5.7-3.5-7.6c-6.6-5.7-14.6-9.6-23.1-11.4
		v-45.6c16-2.8,30.1-11.9,39.1-25.4c6.5-9.6,10-20.9,10-32.5V20.6C118.2,15.1,113.7,10.6,108.2,10.6L108.2,10.6z"/>
	<path class="st0" d="M59.1,85.1c5.5,0,10-4.5,10-10V20.6c0-5.5-4.5-10-10-10s-10,4.5-10,10v54.5C49.1,80.7,53.6,85.1,59.1,85.1z"/>
	<path class="st0" d="M285.3,84.3c0-46.5-31.5-84.3-70.2-84.3s-70.2,37.8-70.2,84.3c0,42.4,26.2,77.6,60.2,83.5v46.5
		c-8.5,1.7-16.5,5.7-23.1,11.4c-2.2,1.9-3.5,4.7-3.5,7.6v136.5c0,20.2,16.3,36.6,36.5,36.6c20.2,0,36.6-16.3,36.6-36.5
		c0,0,0-0.1,0-0.1V233.2c0-2.9-1.3-5.7-3.5-7.6c-6.6-5.7-14.6-9.6-23.1-11.4v-46.5C259.1,161.9,285.3,126.7,285.3,84.3z
		 M214.1,150.1c-4.7,0-8.5-3.8-8.5-8.5s3.8-8.5,8.5-8.5c20.2,0,36.7-22.8,36.7-50.8c0-4.7,3.8-8.5,8.5-8.5c4.7,0,8.5,3.8,8.5,8.5
		C267.8,119.7,243.7,150.1,214.1,150.1L214.1,150.1z"/>
</g>
</svg>
