<?xml version="1.0" encoding="utf-8"?>
<!-- Generator: Adobe Illustrator 23.0.1, SVG Export Plug-In . SVG Version: 6.00 Build 0)  -->
<svg version="1.1" id="Layer_1" xmlns="http://www.w3.org/2000/svg" xmlns:xlink="http://www.w3.org/1999/xlink" x="0px" y="0px"
	 viewBox="0 0 270.5 324.6" style="enable-background:new 0 0 270.5 324.6;" xml:space="preserve">
<style type="text/css">
	.st0{opacity:0.1;fill:#010101;}
	.st1{fill:#FAAC75;}
	.st2{fill:#F0524F;}
	.st3{fill:#7B1B53;}
	.st4{fill:#6D154A;}
	.st5{opacity:0.2;fill:#FDF496;}
	.st6{fill:#E2784E;}
	.st7{fill:url(#SVGID_1_);}
	.st8{fill:#45180E;}
	.st9{fill:#FFFFFF;}
	.st10{fill:url(#SVGID_2_);}
	.st11{fill:#5A1E0D;}
	.st12{fill:url(#SVGID_3_);}
	.st13{fill:#EF4134;}
	.st14{fill:#F26A68;}
	.st15{fill:#7C2817;}
	.st16{fill:#2E9ECD;}
	.st17{fill:#B61F24;}
	.st18{fill:url(#SVGID_4_);}
	.st19{opacity:0.17;fill:#2B3D97;}
	.st20{fill:url(#SVGID_5_);}
	.st21{opacity:0.26;fill:#8FD8F8;}
	.st22{fill:#010101;}
	.st23{fill:#2B5D77;}
	.st24{fill:#898989;}
	.st25{fill:#373737;}
	.st26{fill:#272727;}
	.st27{fill:#B5B6B6;}
	.st28{fill:#F7934F;}
	.st29{fill:#5AB9E8;}
	.st30{fill:#FDF496;}
	.st31{fill:#678F3D;}
	.st32{fill:#8FCA78;}
	.st33{fill:#7DB863;}
	.st34{fill:#B6D992;}
	.st35{fill:#FDBE5B;}
	.st36{fill:#FBAC38;}
	.st37{fill:url(#SVGID_6_);}
</style>
<g>
	<path class="st0" d="M0,317.8c0,3.8,54.9,6.8,122.6,6.8c67.7,0,122.6-3,122.6-6.8c0-3.8-54.9-6.8-122.6-6.8C54.9,311,0,314,0,317.8
		z"/>
	<polygon class="st1" points="107,296.2 108.4,304.1 110.8,303.7 111.4,295.1 	"/>
	<path class="st1" d="M110.8,303.7c0,0,4.4,2.6,7.3,4.1c2.9,1.5,11.1,0.8,11.1,1.8c0,1-4.1,4.4-9.3,4.1c-5.2-0.3-10.2-1.9-10.6-3
		c-0.4-1-0.9-6.5-0.9-6.5L110.8,303.7z"/>
	<path class="st2" d="M108.6,307.1c0,0,6.8,4.2,10.2,4.3c3.3,0.1,5.3-2.6,5.3-2.6s5.1-0.4,5.1,0.7c0,1.2-2.7,4.1-7.9,4.6
		c-5.2,0.4-11.3-2.1-12.1-3.1C108.4,309.9,108.6,307.1,108.6,307.1z"/>
	<path class="st3" d="M63.8,297l7.1,1.3l0.3,0c0,0,2.6-6.8,5.8-15.6c3.8-10.5,8.3-23.7,10-31.3c1.7-7.6,4.1-20.4,6-30.6
		c1.6-8.7,2.8-15.5,2.8-15.5s6.5,47.3,6,58.3c-0.5,11,4.8,34.7,4.8,34.7h7.3c0,0,2.1-11.5,4-25.5c0,0,0,0,0,0
		c1.2-9.1,2.3-19.3,2.5-28.1c0.3-11.2,0.9-28,1.4-42c0.3-9.9,0.6-18.4,0.8-22.5c0-0.1,0-0.1,0-0.2l0-0.1c0.1-1.5,0.1-2.3,0.1-2.3h0
		l-53.8-4.7c0,0-1.5,9.4-2,16.1c-0.5,6.7,2,54.8,0.2,64.2C65.1,262.4,63.8,297,63.8,297z"/>
	<polygon class="st1" points="65.1,297.3 63.9,305.1 66.3,305.1 69.2,298 	"/>
	<path class="st1" d="M66.3,305.1c0,0,3.8,3.3,6.5,5.3c2.6,2,10.8,2.7,10.6,3.7c-0.2,1-4.8,3.6-9.9,2.4c-5.1-1.3-9.7-3.7-9.9-4.8
		c-0.2-1.1,0.3-6.6,0.3-6.6H66.3z"/>
	<path class="st2" d="M63.6,308.1c0,0,6,5.3,9.3,6c3.3,0.7,5.7-1.6,5.7-1.6s5.1,0.5,4.9,1.6s-3.4,3.6-8.6,3.1
		c-5.2-0.5-10.7-4.1-11.3-5.2C62.9,310.8,63.6,308.1,63.6,308.1z"/>
	<path class="st4" d="M67.1,295.1c-0.1-2.6,5.3-38.6,5.2-57.2c-0.2-18.7-1-42.7,2.7-47.5c3.6-4.8,46.7-10.1,47.6-10.2c0,0,0,0,0,0
		V180l0-0.1l0-2.3l-53.8-4.7c0,0-1.5,9.4-2,16.1c-0.5,6.7,2,54.8,0.2,64.2c-1.8,9.3-3.2,44-3.2,44l7.1,1.3
		C70,298.1,67.3,297.3,67.1,295.1z"/>
	<path class="st4" d="M101.8,263.7c-0.5,11,4.8,34.7,4.8,34.7h5.5c0,0-3.5-7-5.1-15.2c-1.6-8.2-2.9-18-2.2-36.2
		c0.7-18.2-3.8-45.2-3.8-45.2l-5.2,3.5C95.8,205.4,102.3,252.7,101.8,263.7z"/>
	<path class="st5" d="M117.9,272.8c1.2-9.1,2.3-19.3,2.5-28.1c0.3-11.2,0.9-28,1.4-42c-1.9,1.9-6.3,7.1-7.3,13.8
		C113.2,225.1,117.8,271.9,117.9,272.8z"/>
	<path class="st5" d="M76.9,282.8c3.8-10.5,8.3-23.7,10-31.3c1.7-7.6,4.1-20.4,6-30.6c-3.7,6.3-9.9,17.6-11.8,24.4
		C78.3,255.3,76.9,282.8,76.9,282.8z"/>
	<path class="st1" d="M99.8,100.4c0,0,1.6,6.8,4.3,14.3c3.3,9,8.1,19,13.6,18.9c9.6-0.2,47.4-11.7,49.7-12.4l0.1,0l0,0c0,0,0,0,0,0
		l-0.4-2.3c0,0-38.8,3.2-45.1,0.3c-1.6-0.7-3.8-3.2-6.1-6.2c-2.2-2.9-4.4-6.3-6.2-9.1c-2-3.3-3.4-5.7-3.4-5.7
		C103.6,100.1,99.8,100.4,99.8,100.4z"/>
	<path class="st1" d="M167.4,118.8c1.4-0.2,5.3-4,7.2-4.5c1.9-0.5,7.1-1.3,7.1-1.3s-0.1,1-2.2,1.6c-2.1,0.6-3.9,1.6-3.9,1.6
		s2.7,0.7,5.2,0.4c2.6-0.2,4.3-0.9,5-0.7c0.7,0.2-2.6,1.8-4.4,1.9c-1.8,0.2-2.4,0.3-2.4,0.3s1.7,0,3.9-0.5c2.2-0.5,3.9-1.4,4.5-1.2
		c0.6,0.2-2.4,2.1-5.5,2.8c-2,0.5-3.1,0.4-3.1,0.4s1.1,0,3.5-0.5c2.4-0.5,3.7-1.5,4.2-1.2c0.5,0.3-2.5,2.1-4.9,2.6
		c-2.4,0.5-3.3,0.4-3.3,0.4s1.6,0.5,3.4,0.2c1.8-0.3,4-2,3.7-1.5c-0.3,0.5-2.8,2.7-7,2.7c-2.9,0-10.1-1-11.4-1.2
		C165.5,121,165.9,119,167.4,118.8z"/>
	<path class="st6" d="M104.1,114.7c3.3,9,8.1,19,13.6,18.9c9.6-0.2,47.4-11.7,49.7-12.4l0.1,0c-1.7,0.3-38.3,7.3-43.7,5.8
		c-5.6-1.5-7.8-14-7.8-14c-2.2-2.9-4.4-6.3-6.2-9.1l-5.4,5.2L104.1,114.7z"/>
	<path class="st2" d="M81.1,79.3l11.2,9.6l12.5,10.7l0.9-0.8l4.6-4.1c0,0-5.4-4.6-12.3-8.4l-2-1.1C88.7,81.5,81.6,79.4,81.1,79.3z"
		/>
	
		<linearGradient id="SVGID_1_" gradientUnits="userSpaceOnUse" x1="156.9862" y1="129.0199" x2="228.0677" y2="129.0199" gradientTransform="matrix(-1 0 0 1 286.6286 0)">
		<stop  offset="0" style="stop-color:#36AEE4"/>
		<stop  offset="1" style="stop-color:#77BFDE"/>
	</linearGradient>
	<path class="st7" d="M58.6,167.1L58.6,167.1c0.5,0.4,4.6,3.3,11.4,6.2c6.8,2.9,16.3,5.8,27.8,6c3.7,0.1,7,0,10-0.1
		c16-0.7,21.8-3.8,21.8-3.8s0.8-12.1-1.2-23.9c-0.5-2.9-1.1-5.7-1.9-8.4c-2.5-7.8-8-15.3-12.3-20.6c-3.2-3.9-5.8-6.6-5.9-7.3
		c-0.4-1.5,2-6.3,1.8-8.9c-0.1-1.7-1.6-4.3-4.3-7.7c-1.6-2-3.5-4.2-5.8-6.6c-1.4-1.5-3.2-3-5-4.4c-6.1-4.6-13.3-8.3-13.8-8.5
		c0,0,0,0,0,0s-0.5,1.3-2.7,0.6c-1.1-0.3-2-0.7-2.6-0.9c-0.6-0.2-0.9-0.3-0.9-0.3s0,0.2,0,0.6c0,0.2,0,0.4,0,0.8
		c-0.1,2-0.2,6.3-0.4,11.6c-0.2,5.8-0.6,12.8-1.1,19.9c-0.2,3-0.4,6-0.7,8.9c-0.8,9.2-1.8,17.4-3.1,21.5
		C65.6,154.2,58.6,167.1,58.6,167.1z"/>
	<path class="st8" d="M67.8,10.2c0,0-15.7-8.1-19.6-7.9S35.8,10,32.7,18c-3.1,8-3.4,32.5-3.4,32.5l4.1-10.6c0,0,7,9.8,7.5,25.7
		s-5.8,24-5.8,24l7.3-4.2l-3.3,4.2c0,0,18.8-6.4,20.3-14.5s-6.8-42.9-5.1-51.2s8.4-10.3,8.4-10.3L67.8,10.2z"/>
	<path class="st8" d="M115.1,30.4c0,0,0.7,4.2-0.6,9.2s-9,14.7-9,14.7L103.9,29L115.1,30.4z"/>
	<path class="st6" d="M75.1,68.2c0,0,0.6,4.4,0.3,6.9c-0.2,2.5-1,5.1-1,5.1s1.1,1.2,3.9,1c2.7-0.2,2.8-1.4,2.8-1.4s-0.6-1.1-1.1-4
		C79.6,73,80,70.8,80,70.8L75.1,68.2z"/>
	<path class="st1" d="M60.4,54.4c4,7,14,15.4,20.5,17.1c0.5,0.1,1,0.2,1.6,0.3c7,0.8,19.6-2.8,21.9-5.8c2.5-3.2,0.4-6.1,1.3-15.1
		c0.3-3.1,1.5-7.6,2.1-12.3c0.2-1.7,0.3-3.4,0.3-5.1c0-1.5-0.2-3-0.5-4.5l0,0c-1.3-5.8-5.3-11-15.3-13.3C56.4,7,56.4,47.4,60.4,54.4
		z"/>
	<g>
		<path class="st9" d="M68.7,46.9c0,0,0.5,2.1,4.4,2.8c3.8,0.6,12.2-0.2,12.2-0.2s-0.3-7.5-4.9-9C75.7,39,68.7,46.9,68.7,46.9z"/>
		
			<linearGradient id="SVGID_2_" gradientUnits="userSpaceOnUse" x1="2237.8108" y1="71.369" x2="2245.0276" y2="71.369" gradientTransform="matrix(0.997 7.770000e-02 -7.770000e-02 0.997 -2149.0249 -200.5964)">
			<stop  offset="0" style="stop-color:#A43422"/>
			<stop  offset="1" style="stop-color:#701811"/>
		</linearGradient>
		<path class="st10" d="M83.7,45c-0.2,2.6-2,4.6-4,4.5s-3.4-2.4-3.2-5c0.2-2.6,2-4.6,4-4.5C82.5,40.1,83.9,42.4,83.7,45z"/>
		<path class="st11" d="M82.5,44.9c-0.1,1.7-1.3,3-2.6,2.9c-1.3-0.1-2.2-1.6-2.1-3.3c0.1-1.7,1.3-3,2.6-2.9S82.6,43.2,82.5,44.9z"/>
		<path class="st11" d="M85.3,49.2c0,0-0.5-9.8-5.3-10.8c-3.8-0.9-12.2,2.8-12.2,2.8l1,5.7c0,0,6.3-6.5,10.3-5.8
			C84.6,42,85.3,49.2,85.3,49.2z"/>
	</g>
	<g>
		<path class="st9" d="M92.8,50.1c0,0,6.8,2.3,9.6,1.9c2.8-0.3,3-1.8,3-1.8s0.7-5.3-2.5-6.6C99.8,42.3,92.8,50.1,92.8,50.1z"/>
		
			<linearGradient id="SVGID_3_" gradientUnits="userSpaceOnUse" x1="2261.0315" y1="71.9202" x2="2266.5002" y2="71.9202" gradientTransform="matrix(0.997 7.770000e-02 -7.770000e-02 0.997 -2149.0249 -200.5964)">
			<stop  offset="0" style="stop-color:#A43422"/>
			<stop  offset="1" style="stop-color:#701811"/>
		</linearGradient>
		<path class="st12" d="M105.1,47.2c-0.2,2.5-1.6,4.4-3.1,4.2c-1.5-0.1-2.6-2.2-2.4-4.7c0.2-2.5,1.6-4.4,3.1-4.2
			C104.2,42.7,105.3,44.8,105.1,47.2z"/>
		<path class="st11" d="M104.1,47.1c-0.1,1.6-1,2.8-2,2.7c-1-0.1-1.6-1.4-1.5-3c0.1-1.6,1-2.8,2-2.7
			C103.5,44.2,104.2,45.6,104.1,47.1z"/>
		<path class="st11" d="M92.8,50.1c0,0,2.5-6,8.4-8.3c3.3-1.3,6.7,4,6.7,4l-2.4,3.6c0,0-0.1-5.6-3.4-5.4
			C98.8,44.2,92.8,50.1,92.8,50.1z"/>
	</g>
	<path class="st9" d="M72.9,45.3c0,0.3,1.5,0.5,3.3,0.5s3.3-0.2,3.3-0.5c0-0.3-1.5-0.5-3.3-0.5S72.9,45,72.9,45.3z"/>
	<path class="st9" d="M97.3,47.3c0,0.2,1,0.3,2.3,0.3c1.3,0,2.3-0.2,2.3-0.3c0-0.2-1-0.3-2.3-0.3C98.3,47,97.3,47.2,97.3,47.3z"/>
	<path class="st6" d="M84.1,55.9c0,0,2.3,3.4,5.6,3.3c3.2,0,5.3-1.7,5.3-1.7s-1.2,0.5-5,0C86.5,57.1,84.1,55.9,84.1,55.9z"/>
	<path class="st13" d="M93.2,65.4c0,0-2.3-1.4-6.2-2.8c-3.9-1.4-9.3-1.9-9.3-1.9s4.9,2.9,9.3,4.2C91.4,66.1,93.2,65.4,93.2,65.4z"/>
	<path class="st14" d="M93.7,65.8c0,0-4.6,3.4-8.7,2.8c-4.7-0.6-7.3-7.9-7.3-7.9s4.8,3.2,9.3,4.2C91.5,65.8,93.7,65.8,93.7,65.8z"/>
	<path class="st11" d="M75.4,59.4c0,0,8.1,4.2,10.9,4.9c2.7,0.7,10,1.3,10,1.3s-7.7,0.6-10.3-0.4C80.7,63.4,75.4,59.4,75.4,59.4z"/>
	<path class="st6" d="M60.4,54.4c4,7,14,15.4,20.5,17.1c0.5,0.1,1,0.2,1.6,0.3c-2.1-1-15.4-7.7-18-18.7c-2.8-12,3.1-19,9.1-23.1
		s19-3,24.9-0.5c4.2,1.8,7.6,6.5,9.3,9.1c0.2-1.7,0.3-3.4,0.3-5.1l-0.5-4.5l0,0c-1.3-5.8-5.3-11-15.3-13.3
		C56.4,7,56.4,47.4,60.4,54.4z"/>
	<path class="st11" d="M85,30.6c0,0-6.1-1.8-10.9,0.2c-4.8,2.1-6.6,6-6.6,6s3-3.8,6.9-4.4C78.3,31.9,83.3,33.8,85,30.6z"/>
	<path class="st11" d="M99.1,31.7c0,0,3.2,0.8,5.6,3.6c2.4,2.8,2.1,7.1,2.1,7.1s-0.8-4.2-2.8-5.4C102.1,35.9,98.5,33.7,99.1,31.7z"
		/>
	<path class="st6" d="M61.1,50.1c0,0-7-5.2-12.4-4.2s5.2,16.7,10,15.7s5.3-2.2,5.3-2.2L61.1,50.1z"/>
	<path class="st1" d="M61.3,50.9c0,0-1-2.7-6.6-5.1C48.4,43,47.3,47,47.3,47s0.6-1.7,7.4,1.4c6.8,3,8,6.8,8,6.8L61.3,50.9z"/>
	<path class="st8" d="M76.2,18c0,0,13.3,9.5,23.4,12.2c10.1,2.7,21.8,0,21.8,0s-12.5-1.7-20.4-7.7S88.4,11.6,82.4,10.3
		S76.2,18,76.2,18z"/>
	<path class="st11" d="M55.5,46.1c0,0,0.3,0.1,2.1,1.1c1.8,1,3.5,3.2,3.5,3.2s0-11.4,2.8-19.1C66.8,23.7,76.2,18,76.2,18
		s0.5-6.5,5.8-6.1c0.5,0,1,0.1,1.6,0.3c4.7,1.3,10.5,6.8,19.2,11.9c0.4,0.2,0.8,0.5,1.2,0.7c10.4,5.9,17.5,5.5,17.5,5.5
		s-4-0.8-7.9-4.6c-0.2-0.2-0.4-0.4-0.6-0.6c-4.1-4.6-11.6-17.8-17.9-21.6c-1.9-1.2-3.8-2-5.6-2.5c-13.9-4.3-21.7,9.4-21.7,9.4
		s-5.1,1.1-10.3,2.9c-4.2,1.5-8.5,3.5-10.1,5.9c-0.1,0.1-0.1,0.2-0.2,0.3C44.1,24.8,55.5,46.1,55.5,46.1z"/>
	<path class="st8" d="M77.8,17.5c0,0,10.9,11.3,21.9,15.9c11,4.5,13.2,4.9,13.2,4.9l-1.4,1.6c0,0-3.7,0.6-17.1-6.5
		c-13.4-7.2-18.5-15.1-18.5-15.1L77.8,17.5z"/>
	<path class="st15" d="M83.6,12.1C83.6,12.1,83.6,12.1,83.6,12.1c4.8,1.3,10.5,6.8,19.2,11.9C108,24.8,113,25,113,25
		c-4.1-4.6-11.6-17.8-17.9-21.6c-1.9-1.2-3.8-2-5.6-2.5c-0.3,1.6-1,5-3.1,7.7C83.6,12.1,83.6,12.1,83.6,12.1z"/>
	<path class="st15" d="M47.4,19c0.6,0.9,1.6,2.2,3.4,4c3.6,3.7,12.3,5.9,12.3,5.9l8.1-8.7c0,0-5.8-0.8-9.7-2.4
		c-2.9-1.3-3.8-3.7-4-4.8C53.2,14.6,49,16.7,47.4,19z"/>
	<path class="st8" d="M76.5,17.5c0,0-11.5,4.8-15.2,12.9S59.8,49,59.8,49l1.3,1.5c0,0-0.1-10.8,3.8-18.5s11.7-13.2,11.7-13.2V17.5z"
		/>
	<path class="st16" d="M58.6,167.1L58.6,167.1l11.4,6.2c6.8,2.9,16.3,5.8,27.8,6c3.7,0.1,7,0,10-0.1c-0.6-0.2-18.4-6.9-22.9-24
		c-4.5-17.4,0.4-33.9,3.6-35.9s19.7-4,19.7-4c-0.4-1.5,2-6.3,1.8-8.9c0,0-8.2,4.4-20,5.1c-11.7,0.8-14.5-0.9-14.5-0.9l-2.9,9.6
		c-0.8,9.2-1.8,17.4-3.1,21.5C65.6,154.2,58.6,167.1,58.6,167.1z"/>
	<path class="st17" d="M79.3,114.4c0,0-2.9,0.2-9.2-1.4c-7.5-1.9-13.1-6.4-13.1-6.4s8.2-3.1,13.5-0.7
		C75.7,108.2,79.3,114.4,79.3,114.4z"/>
	
		<linearGradient id="SVGID_4_" gradientUnits="userSpaceOnUse" x1="157.003" y1="173.3351" x2="229.6677" y2="173.3351" gradientTransform="matrix(-1 0 0 1 286.6286 0)">
		<stop  offset="0" style="stop-color:#FDF496"/>
		<stop  offset="1" style="stop-color:#F9B947"/>
	</linearGradient>
	<path class="st18" d="M129.6,171.5l-0.1,3.9c0,0-12.1,6.9-38.1,5.4S57,167.7,57,167.7l2.4-2.1c0,0,13,10.5,37.9,12.2
		C116.3,179.2,129.6,171.5,129.6,171.5z"/>
	<path class="st2" d="M57,106.6c0,0,5.8,0.3,12.9,3.3c1.3,0.6,2.5,1.1,3.5,1.5c4.4,2,5.9,3,5.9,3s0.2-12.5-1.1-22.8
		c-0.7-5-1.7-9.4-3.4-11.7c0,0-0.1-0.1-0.1-0.1c0,0-7.4,3.9-10.8,8c-0.5,0.6-0.9,1.3-1.4,2.1C59.5,95.6,57,106.6,57,106.6z"/>
	<path class="st19" d="M62.6,89.9c3,0.7,7.3,1.4,11.8,1.7c1.2,0.1,2.5,0.1,3.8,0c0.7,0,1.4,0,2.1-0.1c4.7-0.4,8.9-1.5,12-2.7
		c1-0.4,1.9-0.7,2.6-1.1c2-0.8,3.1-1.5,3.1-1.5l-2-1.1c-7.4-3.8-14.5-5.8-14.9-6c0,0,0,0,0,0s-0.1,2.8-2.3,2.1c-1.1-0.3-2.4,0.2-3,0
		L75,80.2c0,0.2-0.2-0.6-0.2-0.3c0,0-0.1-0.1-0.1-0.1c0,0-7.4,3.9-10.8,8C63.5,88.4,63,89.1,62.6,89.9z"/>
	
		<linearGradient id="SVGID_5_" gradientUnits="userSpaceOnUse" x1="207.8393" y1="79.0094" x2="207.8393" y2="83.4771" gradientTransform="matrix(-1 0 0 1 286.6286 0)">
		<stop  offset="0" style="stop-color:#FDF496"/>
		<stop  offset="1" style="stop-color:#F9B947"/>
	</linearGradient>
	<path class="st20" d="M84.3,80.3L80.8,79c0,0-0.1,1-2.1,1.3c-2,0.3-3.9-1.3-3.9-1.3l-1.5,1.7c0,0,3.1,3.6,7.2,2.6
		C84.3,82.3,84.3,80.3,84.3,80.3z"/>
	<path class="st21" d="M106.6,152c7.9,3.1,16.5,1.3,21.7-0.4c-0.5-2.9-1.1-5.7-1.9-8.4c-2.5-7.8-8-15.3-12.3-20.6
		c-3.7,0.4-9.3,1.6-13.4,4.8C94.1,132.7,94.1,147.1,106.6,152z"/>
	<polygon class="st17" points="187.6,113.2 180,123.4 170.8,122.2 179.1,113.2 	"/>
	<g>
		<path class="st1" d="M167.9,118.7c-0.2,0.1-0.3,0.1-0.5,0.1L167.9,118.7z"/>
		<path class="st1" d="M174.6,114.3c1.9-0.5,7.1-1.3,7.1-1.3s-0.1,1-2.2,1.6c-2.1,0.6-3.9,1.6-3.9,1.6l-7.7,2.4
			C169.5,117.9,172.8,114.8,174.6,114.3z"/>
	</g>
	<polygon class="st22" points="186.4,113.2 178.3,123.2 175.6,122.8 184.7,113.2 	"/>
	<g>
		<polygon class="st23" points="131,216.6 179.7,216.6 179.7,218.5 131.9,218.9 		"/>
		<polygon class="st23" points="256.9,247.1 188.9,218.9 187.8,220.9 253.1,248.1 		"/>
		<g>
			<polygon class="st23" points="190.2,178.8 187.8,252.7 186.7,252.7 188.5,180.5 			"/>
			<polygon class="st23" points="205.3,186.8 197.5,254.1 195,256 203.5,186.8 			"/>
			<polygon class="st23" points="217.2,194.6 208.5,256.7 206.6,256.7 216.2,193.1 			"/>
			<polygon class="st23" points="234.1,203.5 225.2,258.7 224,258.7 232.9,202 			"/>
			<polygon class="st23" points="249.2,210.1 237.8,258.2 236.7,257.7 247.9,209.4 			"/>
			<polygon class="st23" points="176.9,180.6 179,253.5 177.8,253.5 174.9,180.6 			"/>
			<polygon class="st23" points="159.2,181.1 161.2,253.5 160.2,253.5 157.8,181.1 			"/>
			<polygon class="st23" points="141.7,182.3 145.8,252 144.4,251.4 140.1,182.8 			"/>
		</g>
		<polygon class="st17" points="175.6,164.4 182.9,179.5 181.5,179.7 172.6,167 		"/>
		<polygon class="st17" points="175.6,164.4 118.6,165.8 118.6,169.6 175,167 		"/>
		<polygon class="st17" points="122.3,168.6 128.3,183.5 126.9,182.9 118.6,169.6 		"/>
		<polygon class="st23" points="190.2,178.8 121.1,181.7 123,185.7 190.2,180.4 		"/>
		<polygon class="st23" points="267.3,219.7 190.2,178.8 190.2,180.4 267.3,221 		"/>
		<polygon class="st23" points="253.7,258.3 186.7,252.7 137.7,250.2 138.3,251.7 205.3,260.2 243.1,258.9 		"/>
		<polygon class="st23" points="187.8,252.7 170.1,287.9 169.6,307 168.1,307 167.3,287.6 185.7,253.7 		"/>
		<polygon class="st23" points="122.4,303.7 233.6,304.7 234.6,301.9 122.3,301.9 		"/>
		<g>
			<path class="st24" d="M125.4,303.6c-3.2,0-5.8,3.4-5.8,7.6c0,4.2,2.6,7.6,5.8,7.6c3.2,0,5.8-3.4,5.8-7.6
				C131.2,307,128.6,303.6,125.4,303.6z M126.7,315.7c-1.9,0-3.5-2-3.5-4.6c0-2.5,1.6-4.6,3.5-4.6s3.5,2,3.5,4.6
				C130.2,313.7,128.6,315.7,126.7,315.7z"/>
			<path class="st25" d="M125.4,303.6c3.2,0,5.8,3.4,5.8,7.6c0,4.2-2.6,7.6-5.8,7.6c-3.2,0-5.8-3.4-5.8-7.6
				C119.6,307,122.2,303.6,125.4,303.6z M124.2,315.7c1.9,0,3.5-2,3.5-4.6c0-2.5-1.6-4.6-3.5-4.6s-3.5,2-3.5,4.6
				C120.7,313.7,122.2,315.7,124.2,315.7z"/>
			<path class="st26" d="M124.8,305c2.6,0,4.7,2.7,4.7,6.1s-2.1,6.1-4.7,6.1c-2.6,0-4.7-2.7-4.7-6.1S122.3,305,124.8,305z
				 M124.1,315.7c1.9,0,3.5-2,3.5-4.6c0-2.5-1.6-4.6-3.5-4.6c-1.9,0-3.5,2-3.5,4.6C120.6,313.7,122.1,315.7,124.1,315.7z"/>
			<path class="st27" d="M124.2,306.6c1.9,0,3.5,2,3.5,4.6c0,2.5-1.6,4.6-3.5,4.6s-3.5-2-3.5-4.6
				C120.7,308.6,122.2,306.6,124.2,306.6z M123.6,314.6c1.4,0,2.6-1.5,2.6-3.4s-1.2-3.4-2.6-3.4s-2.6,1.5-2.6,3.4
				S122.1,314.6,123.6,314.6z"/>
		</g>
		<g>
			<path class="st24" d="M213.3,302.5c-3.2,0-5.8,3.4-5.8,7.6c0,4.2,2.6,7.6,5.8,7.6c3.2,0,5.8-3.4,5.8-7.6
				C219.1,305.9,216.5,302.5,213.3,302.5z M214.6,314.6c-1.9,0-3.5-2-3.5-4.6c0-2.5,1.6-4.6,3.5-4.6c1.9,0,3.5,2,3.5,4.6
				C218.1,312.6,216.5,314.6,214.6,314.6z"/>
			<path class="st25" d="M213.3,302.5c3.2,0,5.8,3.4,5.8,7.6c0,4.2-2.6,7.6-5.8,7.6c-3.2,0-5.8-3.4-5.8-7.6
				C207.5,305.9,210.1,302.5,213.3,302.5z M212.1,314.6c1.9,0,3.5-2,3.5-4.6c0-2.5-1.6-4.6-3.5-4.6c-1.9,0-3.5,2-3.5,4.6
				C208.6,312.6,210.1,314.6,212.1,314.6z"/>
			<path class="st26" d="M212.8,303.9c2.6,0,4.7,2.7,4.7,6.1c0,3.4-2.1,6.1-4.7,6.1c-2.6,0-4.7-2.7-4.7-6.1
				C208.1,306.7,210.2,303.9,212.8,303.9z M212,314.6c1.9,0,3.5-2,3.5-4.6c0-2.5-1.6-4.6-3.5-4.6c-1.9,0-3.5,2-3.5,4.6
				C208.5,312.6,210.1,314.6,212,314.6z"/>
			<path class="st27" d="M212.1,305.5c1.9,0,3.5,2,3.5,4.6c0,2.5-1.6,4.6-3.5,4.6c-1.9,0-3.5-2-3.5-4.6
				C208.6,307.5,210.1,305.5,212.1,305.5z M211.5,313.5c1.4,0,2.6-1.5,2.6-3.4c0-1.9-1.2-3.4-2.6-3.4c-1.4,0-2.6,1.5-2.6,3.4
				C208.9,311.9,210.1,313.5,211.5,313.5z"/>
		</g>
		<g>
			<path class="st24" d="M169.2,304.7c-2.9,0-5.3,3.1-5.3,6.9c0,3.8,2.4,6.9,5.3,6.9c2.9,0,5.3-3.1,5.3-6.9
				C174.4,307.8,172.1,304.7,169.2,304.7z M170.3,315.7c-1.8,0-3.2-1.9-3.2-4.2c0-2.3,1.4-4.2,3.2-4.2c1.8,0,3.2,1.9,3.2,4.2
				C173.5,313.9,172.1,315.7,170.3,315.7z"/>
			<path class="st25" d="M169.2,304.7c2.9,0,5.3,3.1,5.3,6.9c0,3.8-2.4,6.9-5.3,6.9c-2.9,0-5.3-3.1-5.3-6.9
				C163.9,307.8,166.3,304.7,169.2,304.7z M168,315.7c1.8,0,3.2-1.9,3.2-4.2c0-2.3-1.4-4.2-3.2-4.2c-1.8,0-3.2,1.9-3.2,4.2
				C164.8,313.9,166.3,315.7,168,315.7z"/>
			<path class="st26" d="M168.6,306c2.3,0,4.2,2.5,4.2,5.6c0,3.1-1.9,5.6-4.2,5.6c-2.3,0-4.2-2.5-4.2-5.6
				C164.4,308.5,166.3,306,168.6,306z M167.9,315.7c1.8,0,3.2-1.9,3.2-4.2c0-2.3-1.4-4.2-3.2-4.2c-1.8,0-3.2,1.9-3.2,4.2
				C164.8,313.9,166.2,315.7,167.9,315.7z"/>
			<path class="st27" d="M168,307.4c1.8,0,3.2,1.9,3.2,4.2c0,2.3-1.4,4.2-3.2,4.2c-1.8,0-3.2-1.9-3.2-4.2
				C164.8,309.3,166.3,307.4,168,307.4z M167.5,314.7c1.3,0,2.4-1.4,2.4-3.1c0-1.7-1.1-3.1-2.4-3.1c-1.3,0-2.4,1.4-2.4,3.1
				C165.1,313.3,166.2,314.7,167.5,314.7z"/>
		</g>
		<g>
			<path class="st24" d="M234.8,302.1c-2.9,0-5.3,3.1-5.3,6.9c0,3.8,2.4,6.9,5.3,6.9c2.9,0,5.3-3.1,5.3-6.9
				C240,305.2,237.7,302.1,234.8,302.1z M235.9,313.1c-1.8,0-3.2-1.9-3.2-4.2c0-2.3,1.4-4.2,3.2-4.2c1.8,0,3.2,1.9,3.2,4.2
				C239.1,311.3,237.6,313.1,235.9,313.1z"/>
			<path class="st25" d="M234.8,302.1c2.9,0,5.3,3.1,5.3,6.9c0,3.8-2.4,6.9-5.3,6.9c-2.9,0-5.3-3.1-5.3-6.9
				C229.5,305.2,231.8,302.1,234.8,302.1z M233.6,313.1c1.8,0,3.2-1.9,3.2-4.2c0-2.3-1.4-4.2-3.2-4.2c-1.8,0-3.2,1.9-3.2,4.2
				C230.4,311.3,231.9,313.1,233.6,313.1z"/>
			<path class="st26" d="M234.2,303.4c2.3,0,4.2,2.5,4.2,5.6s-1.9,5.6-4.2,5.6c-2.3,0-4.2-2.5-4.2-5.6S231.9,303.4,234.2,303.4z
				 M233.5,313.1c1.8,0,3.2-1.9,3.2-4.2c0-2.3-1.4-4.2-3.2-4.2c-1.8,0-3.2,1.9-3.2,4.2C230.4,311.3,231.8,313.1,233.5,313.1z"/>
			<path class="st27" d="M233.6,304.8c1.8,0,3.2,1.9,3.2,4.2s-1.4,4.2-3.2,4.2c-1.8,0-3.2-1.9-3.2-4.2S231.9,304.8,233.6,304.8z
				 M233.1,312.1c1.3,0,2.4-1.4,2.4-3.1c0-1.7-1.1-3.1-2.4-3.1c-1.3,0-2.4,1.4-2.4,3.1C230.7,310.7,231.8,312.1,233.1,312.1z"/>
		</g>
		<polygon class="st23" points="141.7,252.7 122.8,288.3 122.4,305.2 121.5,304.9 120.3,287.8 140.2,252 		"/>
		<polygon class="st23" points="218,302 211.8,310 211.1,310 208.1,302 		"/>
		<polygon class="st23" points="173.6,303.9 167.7,310.8 166.9,310.8 163.7,303.9 		"/>
		<polygon class="st23" points="234.6,301.9 233.2,309 232.5,309 229.3,302 		"/>
		<polygon class="st23" points="130.4,303.4 124.4,310.3 123.7,310.3 121.4,303.6 		"/>
		<polygon class="st23" points="236.8,302.4 168.6,300 122.3,301.9 		"/>
		<polygon class="st23" points="171.1,285.8 190.8,300.2 191.6,300.8 188.6,300.8 170.1,287.9 		"/>
		<polygon class="st23" points="123.2,285.8 150.3,301.6 146.9,302.1 121,289.2 		"/>
		<g>
			<path class="st1" d="M221.4,255.6c3.8,3.4,52.7-41.1,48.9-44.8C266.5,207,206.9,242.8,221.4,255.6z"/>
			<path class="st28" d="M250.4,219.3c0,0,7.8-0.8,8.1,0c0.3,0.8-10.6,1.6-10.6,1.6L250.4,219.3z"/>
			<path class="st28" d="M240.6,225.8c0,0,10.1-1.7,10.3,0c0.2,1.7-14.2,2.9-14.2,2.9L240.6,225.8z"/>
			<path class="st28" d="M230.8,233.7c0,0,11.2-3.2,12.2-1.8c1,1.3-16.6,6.1-16.6,6.1L230.8,233.7z"/>
		</g>
		<g>
			<polygon class="st29" points="187.7,248.8 184.4,198.9 152.2,198.9 161.2,250.5 			"/>
			<polygon class="st23" points="152.2,198.9 146.6,202 154.4,247.7 161.2,250.5 			"/>
			<polygon class="st30" points="183.5,246.2 181.3,208.1 159.2,209.5 165.2,246.2 			"/>
		</g>
		<g>
			<path class="st17" d="M171.3,243.9c9.8-0.3,10.3,8.5,0.8,8.6C164,252.7,160.1,244.2,171.3,243.9z"/>
			<polygon class="st31" points="175,244.3 176.7,242.9 172.6,243.9 171.1,241.7 171.3,243.9 166.2,243.9 170.4,244.7 169.8,246.6 
				172.3,245 175.1,245.7 			"/>
		</g>
		<g>
			<path class="st17" d="M160.1,242.2c9.8-0.3,10.3,8.5,0.8,8.6C152.8,251,148.9,242.6,160.1,242.2z"/>
			<polygon class="st31" points="163.9,242.6 165.5,241.2 161.4,242.2 160,240 160.1,242.2 155,242.2 159.2,243 158.6,244.9 
				161.1,243.3 163.9,244.1 			"/>
		</g>
		<g>
			<path class="st32" d="M191.8,240c0,8.6,7.5,15.6,16.7,15.6c5.2,0,9.9-2.3,12.9-5.8c0,0,0,0,0,0c2.3-2.7,3.7-6.1,3.7-9.8
				c0-8.6-7.5-15.6-16.7-15.6c-5.5,0-10.4,2.5-13.4,6.4l0,0l-0.8,1.1l0,0C192.7,234.3,191.8,237.1,191.8,240z"/>
			<path class="st33" d="M191.8,240c0,8.6,7.5,15.6,16.7,15.6c5.2,0,9.9-2.3,12.9-5.8c-0.4,0.1-11.3,2.2-19.5-3.1
				c-8.3-5.4-6.9-16-6.9-16l0,0l-0.8,1.1l0,0C192.7,234.3,191.8,237.1,191.8,240z"/>
			<path class="st34" d="M201.7,254.3c0,0,2.5-2.6,0-4.8c-2.5-2.3-2.9-1.9-2.7-3c0.3-1.1,6.3-2.1,5.3-3.3s-4.6-1.5-5.3-2.3
				c-0.7-0.9,1.2-3.8,0-5.6c-1.2-1.8-1.4-1.2-2.4-1.8s-3.3-2.7-4.2-2.7c-0.9,0-3.6,6.2-2.2,12.8
				C191.6,250.3,201.7,254.3,201.7,254.3z"/>
			<path class="st34" d="M206.2,255.5c0,0,2.5-3.1,5.2-3.9s11.2-3.1,11.2-5.2c-0.1-2-3.4-7.1-1.5-8.7c1.9-1.6,3.7-1.4,3.7-1.4
				s3.6,4.8,0,12.1C219.5,258.9,206.2,255.5,206.2,255.5z"/>
		</g>
		<g>
			<polygon class="st35" points="193.1,253.8 198.7,217.2 192.2,207.8 184.9,207.8 178.2,216.4 181.4,253.3 			"/>
			<polygon class="st16" points="192.2,207.8 192.9,205.4 184.5,206 184.9,207.8 			"/>
			<polygon class="st36" points="188.5,207.8 184.5,216.7 197.3,217.6 190.1,253.5 181.4,253.3 178.2,216.4 184.9,207.8 			"/>
			<polygon class="st30" points="197.5,225.3 187.3,225.3 186.9,235.1 196.3,233.8 			"/>
		</g>
		<polygon class="st23" points="125.6,184.2 213.6,222.7 213.6,224.6 123.9,186.6 122.8,184.7 		"/>
		<polygon class="st23" points="267.3,219.9 211.3,221.8 213.6,224.6 267.3,221.2 		"/>
		<polygon class="st23" points="122.7,184.3 136.2,252.4 205,261.3 253.7,258.4 267.3,221.2 264.8,220.6 252.9,257.7 205.3,259.5 
			138,249.1 124.9,187 		"/>
		<polygon class="st23" points="217.2,222.9 207.1,259.4 205.3,259.4 212.9,223.6 		"/>
		<polygon class="st23" points="262.1,220.9 247,258.1 246.2,258.4 260.7,221 		"/>
		<polygon class="st23" points="248.6,221.8 240.9,258.4 240.1,258.4 247,222.2 		"/>
		<polygon class="st23" points="234.1,222.8 226.9,259.4 226.3,259.4 232.6,222.8 		"/>
		<polygon class="st23" points="222.6,224 214.1,260.2 213.6,260 221.4,224 		"/>
		<polygon class="st23" points="206.2,220.6 200.1,260.2 199.3,259.7 204.4,219.5 		"/>
		<polygon class="st23" points="192.2,214.7 190.2,258.3 189.3,258.2 190.2,214 		"/>
		<polygon class="st23" points="179,208.4 175.7,256 174.9,255.8 176.9,207.4 		"/>
		<polygon class="st23" points="163.4,202.6 165.2,255.6 164.3,255.6 161.2,201.4 		"/>
		<polygon class="st23" points="148.3,195 150.2,252 149.3,252 146.6,195 		"/>
		<polygon class="st23" points="135.1,189.2 140.2,252 139.6,252 131.9,189.2 		"/>
		<polygon class="st23" points="256.9,247.1 209.4,247.1 129.8,216.6 131,219.9 209.1,248.1 256.2,249.2 		"/>
	</g>
	<path class="st1" d="M62,107.4c0,0,0.1,0.2,0.2,0.6c1.4,4.8,10.5,37,17.9,41.7c5,3.1,22.1,8,34.5,11.3l0.3,0.1c7.4,2,13,3.4,13,3.4
		l1.2-2.3c0,0-32.9-17.1-37.7-21.9c-5.5-5.6-10.6-20-12.4-25.2c-0.3-0.9-0.5-1.5-0.6-1.8c0-0.1,0-0.1,0-0.1
		C73.7,109,62,107.4,62,107.4z"/>
	<path class="st6" d="M62.2,108c1.4,4.8,10.5,37,17.9,41.7c5,3.1,22.1,8,34.5,11.3l0.3,0.1l12.3,3c-1.6-0.5-27-8.2-36.1-13.2
		c-9.5-5.1-17.6-18.4-18.1-24c-0.4-5.6,6-11.9,6-11.9c-0.3-0.9-0.5-1.5-0.6-1.8l-7.4-3.1L62.2,108z"/>
	
		<linearGradient id="SVGID_6_" gradientUnits="userSpaceOnUse" x1="207.3277" y1="109.3582" x2="229.6677" y2="109.3582" gradientTransform="matrix(-1 0 0 1 286.6286 0)">
		<stop  offset="0" style="stop-color:#FDF496"/>
		<stop  offset="1" style="stop-color:#F9B947"/>
	</linearGradient>
	<path class="st37" d="M79.3,114.4v-1.9c0,0-6-4.1-13.4-6.3c-7.8-2.3-8.4-1.9-8.4-1.9l-0.6,2.3c0,0,1.2,0.1,9.6,2.8
		C74.6,112,79.3,114.4,79.3,114.4z"/>
	<path class="st1" d="M129.3,162.2c1.2,0.6,6.8-0.9,8.7-0.3c1.8,0.6,6.5,2.5,6.5,2.5s-0.7,0.9-2.8,0.3c-2.1-0.5-4.2-0.6-4.2-0.6
		s1.7,2,3.9,3.1c2.2,1.1,4,1.4,4.4,1.9c0.4,0.5-3.3,0.2-4.8-0.5c-1.6-0.8-2.1-1-2.1-1s1.3,0.8,3.4,1.6c2,0.7,4.1,0.8,4.4,1.2
		c0.3,0.5-3.2,0.7-6.2-0.3c-1.9-0.6-2.7-1.3-2.7-1.3s0.9,0.6,3.1,1.4c2.2,0.8,3.9,0.6,4.1,1.1c0.2,0.5-3.4,0.6-5.6-0.2
		c-2.2-0.8-2.9-1.3-2.9-1.3s0.9,1.3,2.6,2c1.6,0.7,4.4,0.3,3.9,0.6c-0.6,0.3-4,1-7.3-1.2c-2.3-1.5-7.3-6.2-8.2-7.1
		C126.4,163.3,128.1,161.6,129.3,162.2z"/>
</g>
</svg>
