<?xml version="1.0" encoding="utf-8"?>
<!-- Generator: Adobe Illustrator 23.0.1, SVG Export Plug-In . SVG Version: 6.00 Build 0)  -->
<svg version="1.1" id="Layer_1" xmlns="http://www.w3.org/2000/svg" xmlns:xlink="http://www.w3.org/1999/xlink" x="0px" y="0px"
	 viewBox="0 0 23.9 21.4" style="enable-background:new 0 0 23.9 21.4;" xml:space="preserve">
<style type="text/css">
	.st0{fill:#12AB73;}
</style>
<path class="st0" d="M22,1.9c-2.6-2.6-6.8-2.6-9.4,0c-0.2,0.2-0.5,0.5-0.7,0.8c-0.2-0.3-0.4-0.5-0.7-0.8c-2.5-2.6-6.7-2.6-9.2,0
	c-2.6,2.6-2.6,6.8,0,9.4l8.7,8.7l1.3,1.3l1.3-1.3l8.7-8.7C24.6,8.8,24.6,4.5,22,1.9z M11.9,19.1c0,0-8.1-8.7-8.7-8.7h5.2l1.5-2.5
	l4,5.4l2-2.9h4.7C20.1,10.4,11.9,19.1,11.9,19.1z M21.4,9.4h-5.9l-1.5,2.1l-4-5.2l-2,3.1H2.5C1.4,7.3,1.7,5,3.3,3.4
	C5,1.7,8.1,1.5,9.9,3.3c0.4,0.4,2,2,2,2s1.6-1.6,2-2c1.8-1.8,4.8-1.7,6.7,0.2C22.3,5,22.5,7.3,21.4,9.4z"/>
</svg>
