<?xml version="1.0" encoding="utf-8"?>
<!-- Generator: Adobe Illustrator 23.0.1, SVG Export Plug-In . SVG Version: 6.00 Build 0)  -->
<svg version="1.1" id="Layer_1" xmlns="http://www.w3.org/2000/svg" xmlns:xlink="http://www.w3.org/1999/xlink" x="0px" y="0px"
	 viewBox="0 0 405.4 371.5" style="enable-background:new 0 0 405.4 371.5;" xml:space="preserve">
<style type="text/css">
	.st0{fill:#12AB73;}
</style>
<g id="Air_quality_control">
	<path class="st0" d="M165,50.8c0.7,4.5,4.9,7.6,9.4,7c2.2-0.3,4.2-1.5,5.5-3.4l17.4-23.8c2.7-3.7,1.9-8.9-1.8-11.5L171.7,1.6
		c-3.7-2.7-8.9-1.9-11.6,1.8c-1.3,1.8-1.8,4-1.5,6.2l2,12.8C51.5,45.1-18.4,151.9,4.3,261c2.3,11.2,5.6,22.1,9.8,32.7l10,22.8h19.7
		l-13-29.6c-37.1-94.4,9.4-201,103.8-238.1c9.4-3.7,19-6.6,28.8-8.7L165,50.8z"/>
	<path class="st0" d="M400.2,294.7l-11.4-4.7c8.9-23.1,13.4-47.6,13.4-72.3c0-96.1-68.4-179.3-162.6-197.8l-3.5,17.7
		c85.8,16.8,148,92.6,148,180.1c0,22.4-4,44.6-12,65.5l-10.5-4.3c-4.2-1.7-9,0.3-10.8,4.5c-0.8,2-0.8,4.3,0,6.3l11.4,27.2
		c1.8,4.2,6.6,6.2,10.8,4.4l27.2-11.3c4.2-1.7,6.3-6.6,4.5-10.8C403.9,297.2,402.2,295.5,400.2,294.7z"/>
	<path class="st0" d="M287.7,142.2c-18.9-0.9-54.4,1.2-79.7,25.6c-2.7,2.6-5.2,5.3-7.5,8.3c-2.3-2.9-4.8-5.7-7.4-8.3
		c-25.3-24.4-60.8-26.5-79.7-25.6c-12.5,0.5-22.5,10.6-23.1,23.1c-0.9,18.9,1.2,54.4,25.6,79.7c17.4,18.1,42.9,27.5,75.6,28.2v80.4
		h-71.3v18h160.1v-18h-70.7v-80.4c32.7-0.6,58.1-10.1,75.6-28.2c24.4-25.3,26.5-60.8,25.6-79.7C310.2,152.7,300.2,142.7,287.7,142.2
		z M108.4,166.1c0.1-3.2,2.7-5.8,5.9-5.9c16-0.8,45.9,0.9,66.3,20.6c14.2,13.7,21.8,34.2,22.6,61c-13.9-29-41.9-38.3-43.4-38.7
		l-5.1,16.2c0.3,0.1,26,8.6,35.6,35.9c-27-0.8-47.7-8.4-61.4-22.6C109.3,212,107.6,182.1,108.4,166.1z"/>
</g>
</svg>
