<?xml version="1.0" encoding="utf-8"?>
<!-- Generator: Adobe Illustrator 23.0.1, SVG Export Plug-In . SVG Version: 6.00 Build 0)  -->
<svg version="1.1" id="Income_x5F_graph" xmlns="http://www.w3.org/2000/svg" xmlns:xlink="http://www.w3.org/1999/xlink" x="0px"
	 y="0px" viewBox="0 0 484.4 485" style="enable-background:new 0 0 484.4 485;" xml:space="preserve">
<style type="text/css">
	.st0{fill:#FFFFFF;}
</style>
<g>
	<path class="st0" d="M128.1,409h-60c-1.2,0-2.4,0.2-2.4,1.4V472h66v-61.6C131.7,409.2,129.3,409,128.1,409z"/>
	<path class="st0" d="M131.7,332.4c0-1.2-1.3-2.5-2.6-2.5H68.3c-1.2,0-2.7,1.2-2.7,2.5v60.8c0,1.2,1.4,1.8,2.7,1.8h60.8
		c1.2,0,2.6-0.5,2.6-1.8V332.4z"/>
	<path class="st0" d="M257.1,409h-60c-1.2,0-2.4,0.2-2.4,1.4V472h65v-61.6C259.7,409.2,258.4,409,257.1,409z"/>
	<path class="st0" d="M259.7,332.4c0-1.2-1.1-2.5-2.3-2.5h-60.8c-1.2,0-1.9,1.2-1.9,2.5v60.8c0,1.2,0.7,1.8,1.9,1.8h60.8
		c1.2,0,2.3-0.5,2.3-1.8V332.4z"/>
	<path class="st0" d="M259.7,255.9c0-1.2-1.1-3-2.3-3h-60.8c-1.2,0-1.9,1.7-1.9,3v60.7c0,1.2,0.7,2.3,1.9,2.3h60.8
		c1.2,0,2.3-1,2.3-2.3V255.9z"/>
	<path class="st0" d="M386.1,409h-60c-1.2,0-1.4,0.2-1.4,1.4V472h63v-61.6C387.7,409.2,387.4,409,386.1,409z"/>
	<path class="st0" d="M389.7,332.4c0-1.2-0.6-2.5-1.8-2.5h-60.8c-1.2,0-2.4,1.2-2.4,2.5v60.8c0,1.2,1.2,1.8,2.4,1.8h60.8
		c1.2,0,1.8-0.5,1.8-1.8V332.4z"/>
	<path class="st0" d="M389.7,255.9c0-1.2-0.6-3-1.8-3h-60.8c-1.2,0-2.4,1.7-2.4,3v60.7c0,1.2,1.2,2.3,2.4,2.3h60.8
		c1.2,0,1.8-1,1.8-2.3V255.9z"/>
	<path class="st0" d="M389.7,179.4c0-1.2-0.6-2.5-1.8-2.5h-60.8c-1.2,0-2.4,1.2-2.4,2.5v60.8c0,1.2,1.2,1.8,2.4,1.8h60.8
		c1.2,0,1.8-0.5,1.8-1.8V179.4z"/>
	<path class="st0" d="M324.7,149.5V163c0,1.2,0.2,3,1.4,3h60c1.2,0,1.6-1.8,1.6-3v-60c0-1.2-0.3-3-1.6-3h-9.5
		C372.5,127,349.7,147.4,324.7,149.5z"/>
	<path class="st0" d="M65.7,303.2v13.5c0,1.2,1.2,2.3,2.4,2.3h60c1.2,0,3.6-1.1,3.6-2.3v-60c0-1.2-2.3-3.7-3.6-3.7h-9.5
		C114.5,280,92.7,301.1,65.7,303.2z"/>
	<path class="st0" d="M61.3,289.9c24.6,0,44.5-19.9,44.5-44.5c0-24.6-19.9-44.5-44.5-44.5c-24.6,0-44.5,19.9-44.5,44.5
		C16.9,270,36.8,289.9,61.3,289.9z M39,243c2.6-2.2,6.5-1.9,8.7,0.7l5.8,6.9l21.8-21.8c2.4-2.4,6.3-2.4,8.8,0c2.4,2.4,2.4,6.3,0,8.8
		l-26.5,26.5c-1.2,1.2-2.7,1.8-4.4,1.8c-0.1,0-0.2,0-0.3,0c-1.7-0.1-3.3-0.9-4.5-2.2l-10.2-12C36.1,249.1,36.4,245.2,39,243z"/>
	<path class="st0" d="M194.7,226.4v13.5c0,1.2,1.2,2.1,2.4,2.1h60c1.2,0,2.6-0.9,2.6-2.1v-60c0-1.2-1.3-2.9-2.6-2.9h-9.5
		C243.5,204,221.7,224.3,194.7,226.4z"/>
	<path class="st0" d="M190.4,213.1c24.6,0,44.5-19.9,44.5-44.5s-19.9-44.5-44.5-44.5s-44.5,19.9-44.5,44.5S165.8,213.1,190.4,213.1z
		 M168,166.3c2.6-2.2,6.5-1.9,8.7,0.7l5.8,6.9l21.8-21.8c2.4-2.4,6.3-2.4,8.8,0c2.4,2.4,2.4,6.3,0,8.8l-26.5,26.5
		c-1.2,1.2-2.7,1.8-4.4,1.8c-0.1,0-0.2,0-0.3,0c-1.7-0.1-3.4-0.9-4.5-2.2l-10.2-12C165.1,172.4,165.4,168.5,168,166.3z"/>
	<path class="st0" d="M482.7,20.1L463.2,1.5c-2-2-5.2-1.9-7.3,0l-19.5,18.6c-1.6,1.5-2.1,3.2-1.3,5.2c0.8,2,2.7,2.7,4.9,2.7h12.6
		v47.9c0,3.4,3.6,6.2,7,6.2s7-2.8,7-6.2V28h12.4c2.2,0,4.1-0.7,4.9-2.7C484.8,23.2,484.3,21.6,482.7,20.1z"/>
	<path class="st0" d="M459.7,96.9c-3.4,0-7,2.8-7,6.2v51.4c0,3.4,3.6,6.2,7,6.2s7-2.8,7-6.2v-51.4C466.7,99.6,463.1,96.9,459.7,96.9
		z"/>
	<path class="st0" d="M459.7,178.1c-3.4,0-7,2.8-7,6.2v274.6c0,7.6-5.4,13.1-13,13.1H6.2c-3.4,0-6.2,3.1-6.2,6.5s2.8,6.5,6.2,6.5
		h433.5c14.4,0,27-11.6,27-26.1V184.3C466.7,180.9,463.1,178.1,459.7,178.1z"/>
	<path class="st0" d="M319.3,136.2c24.6,0,44.5-19.9,44.5-44.5s-19.9-44.5-44.5-44.5s-44.5,19.9-44.5,44.5S294.8,136.2,319.3,136.2z
		 M297.5,80H308c1.9,0,3.5-0.6,4.1-2.4l3.2-9.6c1.3-4,6.9-3.8,8.2,0.1l3.2,9.4c0.6,1.8,2.2,2.5,4.1,2.5h10.4c4.2,0,5.9,5.9,2.5,8.3
		l-8.4,6.4c-1.5,1.1-2.1,3.2-1.6,4.9l3.2,10c1.3,4-3.2,7.3-6.6,4.8l-8.4-6.1c-1.5-1.1-3.5-1.1-5.1,0l-8.4,6.1
		c-3.4,2.4-7.9-0.8-6.6-4.8l3.2-9.9c0.6-1.8-0.1-3.7-1.6-4.8l-8.4-6.7C291.6,85.9,293.4,80,297.5,80z"/>
</g>
</svg>
