<?xml version="1.0" encoding="utf-8"?>
<!-- Generator: Adobe Illustrator 23.0.1, SVG Export Plug-In . SVG Version: 6.00 Build 0)  -->
<svg version="1.1" id="Layer_1" xmlns="http://www.w3.org/2000/svg" xmlns:xlink="http://www.w3.org/1999/xlink" x="0px" y="0px"
	 viewBox="0 0 66 52" style="enable-background:new 0 0 66 52;" xml:space="preserve">
<style type="text/css">
	.st0{fill:none;stroke:#FFFFFF;stroke-width:4;stroke-linecap:round;stroke-miterlimit:10;}
	.st1{fill:none;stroke:#FDFFFF;stroke-width:4;stroke-linecap:round;stroke-miterlimit:10;}
	.st2{fill:#FFFFFF;}
</style>
<title></title>
<g>
	<path class="st0" d="M60,20V9c0-3.9-3.1-7-7-7H16C8.3,2,2,8.3,2,16v20c0,7.7,6.3,14,14,14h37c3.9,0,7-3.1,7-7v-5"/>
	<path class="st1" d="M54,20h6c2.2,0,4,1.8,4,4v4c0,2.2-1.8,4-4,4h-6c-3.3,0-6-2.7-6-6l0,0C48,22.7,50.7,20,54,20z"/>
	<circle class="st2" cx="54" cy="26" r="2"/>
	<path class="st2" d="M37.6,15l-20.5,9.9c-0.1,0.1-0.2,0-0.3-0.1c0,0,0-0.1,0-0.1c0.7-4.5,5-7.6,9.6-6.9c0.2,0,0.4,0.1,0.6,0.1
		c0.4,0.1,0.9,0,1.3-0.2l2.8-1.3c0.2-0.1,0.3-0.3,0.2-0.5c0-0.1-0.1-0.1-0.2-0.2c-5.7-3.4-13-1.5-16.4,4.2c-1.1,1.8-1.7,4-1.7,6.1
		c0,0.2,0,0.4,0,0.5h0c0,0.2-0.1,0.3-0.2,0.4l0,0l-0.5,0.2c-0.4,0.2-0.6,0.5-0.6,0.9v2.8c0,0.2,0.2,0.4,0.4,0.4c0.1,0,0.1,0,0.2,0
		l25.3-12.1c0.4-0.2,0.6-0.5,0.6-0.9v-2.8c0-0.2-0.2-0.4-0.4-0.4C37.8,15,37.7,15,37.6,15z"/>
	<path class="st2" d="M12.4,37l20.5-9.9c0.1-0.1,0.2,0,0.3,0.1c0,0,0,0.1,0,0.1c-0.7,4.5-5,7.6-9.6,6.9c-0.2,0-0.4-0.1-0.6-0.1
		c-0.4-0.1-0.9,0-1.3,0.2L19,35.6c-0.2,0.1-0.3,0.3-0.2,0.5c0,0.1,0.1,0.1,0.2,0.2c5.7,3.4,13,1.5,16.4-4.2c1.1-1.8,1.7-4,1.7-6.1
		c0-0.2,0-0.4,0-0.5h0c0-0.2,0.1-0.3,0.2-0.4l0,0l0.5-0.2c0.4-0.2,0.6-0.5,0.6-0.9v-2.8c0-0.2-0.2-0.4-0.4-0.4c-0.1,0-0.1,0-0.2,0
		L12.4,32.9c-0.4,0.2-0.6,0.5-0.6,0.9v2.8c0,0.2,0.2,0.4,0.4,0.4C12.2,37,12.3,37,12.4,37z"/>
</g>
</svg>
