<?xml version="1.0" encoding="utf-8"?>
<!-- Generator: Adobe Illustrator 23.0.1, SVG Export Plug-In . SVG Version: 6.00 Build 0)  -->
<svg version="1.1" id="Icons" xmlns="http://www.w3.org/2000/svg" xmlns:xlink="http://www.w3.org/1999/xlink" x="0px" y="0px"
	 viewBox="0 0 30 30" style="enable-background:new 0 0 30 30;" xml:space="preserve">
<style type="text/css">
	.st0{fill:none;stroke:#12AB73;stroke-width:2;stroke-linecap:round;stroke-linejoin:round;stroke-miterlimit:10;}
</style>
<g>
	<line class="st0" x1="15" y1="1" x2="15" y2="6"/>
	<g>
		<circle class="st0" cx="15" cy="15" r="9"/>
		<circle class="st0" cx="15" cy="15" r="14"/>
		<line class="st0" x1="9.6" y1="2.1" x2="11.6" y2="6.7"/>
		<line class="st0" x1="5.1" y1="5.1" x2="8.6" y2="8.6"/>
		<line class="st0" x1="2.1" y1="9.6" x2="6.7" y2="11.6"/>
		<line class="st0" x1="1" y1="15" x2="6" y2="15"/>
		<line class="st0" x1="2.1" y1="20.4" x2="6.7" y2="18.4"/>
		<line class="st0" x1="5.1" y1="24.9" x2="8.6" y2="21.4"/>
		<line class="st0" x1="9.6" y1="27.9" x2="11.6" y2="23.3"/>
		<line class="st0" x1="15" y1="29" x2="15" y2="24"/>
		<line class="st0" x1="20.4" y1="27.9" x2="18.4" y2="23.3"/>
		<line class="st0" x1="24.9" y1="24.9" x2="21.4" y2="21.4"/>
		<line class="st0" x1="27.9" y1="20.4" x2="23.3" y2="18.4"/>
		<line class="st0" x1="29" y1="15" x2="24" y2="15"/>
		<line class="st0" x1="27.9" y1="9.6" x2="23.3" y2="11.6"/>
		<line class="st0" x1="24.9" y1="5.1" x2="21.4" y2="8.6"/>
		<line class="st0" x1="20.4" y1="2.1" x2="18.4" y2="6.7"/>
		<circle class="st0" cx="15" cy="10" r="1"/>
		<circle class="st0" cx="15" cy="15" r="1"/>
		<circle class="st0" cx="20" cy="15" r="1"/>
		<circle class="st0" cx="10" cy="15" r="1"/>
		<circle class="st0" cx="15" cy="20" r="1"/>
		<line class="st0" x1="10" y1="15" x2="20" y2="15"/>
		<line class="st0" x1="15" y1="20" x2="15" y2="10"/>
	</g>
</g>
</svg>
