<?xml version="1.0" encoding="utf-8"?>
<!-- Generator: Adobe Illustrator 23.0.1, SVG Export Plug-In . SVG Version: 6.00 Build 0)  -->
<svg version="1.1" id="Layer_1" xmlns:serif="http://www.serif.com/"
	 xmlns="http://www.w3.org/2000/svg" xmlns:xlink="http://www.w3.org/1999/xlink" x="0px" y="0px" viewBox="0 0 504.8 359.4"
	 style="enable-background:new 0 0 504.8 359.4;" xml:space="preserve">
<style type="text/css">
	.st0{fill-rule:evenodd;clip-rule:evenodd;fill:#12AB73;}
</style>
<g id="play_with_trackbar">
	<g id="window">
		<path id="window1" class="st0" d="M0,321.9V37.5C0,16.8,16.8,0,37.5,0h429.7c20.7,0,37.6,16.8,37.6,37.5v284.4
			c0,20.7-16.8,37.5-37.6,37.5H37.5C16.8,359.4,0,342.6,0,321.9z M481,321.9V37.5c0-7.6-6.2-13.8-13.8-13.8H37.5
			c-7.6,0-13.8,6.2-13.8,13.8v284.4c0,7.6,6.2,13.8,13.8,13.8h429.7C474.8,335.6,481,329.5,481,321.9z"/>
		<path id="window-actions" class="st0" d="M41.7,47.6c0-6.3,5.1-11.4,11.4-11.4c6.3,0,11.4,5.1,11.4,11.4c0,6.3-5.1,11.4-11.4,11.4
			C46.8,59,41.7,53.9,41.7,47.6z M73.9,47.6c0-6.3,5.1-11.4,11.4-11.4s11.4,5.1,11.4,11.4c0,6.3-5.1,11.4-11.4,11.4
			S73.9,53.9,73.9,47.6z M106.2,47.6c0-6.3,5.1-11.4,11.4-11.4c6.3,0,11.4,5.1,11.4,11.4c0,6.3-5.1,11.4-11.4,11.4
			C111.3,59,106.2,53.9,106.2,47.6z"/>
	</g>
	<g id="trackbar">
		<path id="line" class="st0" d="M51.5,296.9c0-3.6,3-6.6,6.6-6.6h388.7c3.6,0,6.6,3,6.6,6.6c0,3.7-3,6.6-6.6,6.6H58.1
			C54.4,303.5,51.5,300.5,51.5,296.9z"/>
		<path id="position" class="st0" d="M112,268.6c14.7,0,26.7,12,26.7,26.7c0,14.7-12,26.7-26.7,26.7s-26.7-12-26.7-26.7
			C85.3,280.5,97.3,268.6,112,268.6z"/>
	</g>
	<path id="play" class="st0" d="M309.6,181.6L222.5,232c-7.2,4.2-13.1,0.8-13.1-7.6l0-100.7c0-8.3,5.9-11.7,13.1-7.6l87.2,50.3
		C316.8,170.7,316.8,177.5,309.6,181.6z"/>
</g>
</svg>
