<?xml version="1.0" encoding="utf-8"?>
<!-- Generator: Adobe Illustrator 23.0.1, SVG Export Plug-In . SVG Version: 6.00 Build 0)  -->
<svg version="1.1" id="Capa_1" xmlns="http://www.w3.org/2000/svg" xmlns:xlink="http://www.w3.org/1999/xlink" x="0px" y="0px"
	 viewBox="0 0 18.4 17.6" style="enable-background:new 0 0 18.4 17.6;" xml:space="preserve">
<style type="text/css">
	.st0{fill:#12AB73;}
</style>
<g>
	<path class="st0" d="M18.2,10.5c-0.1-0.1-0.3-0.1-0.4-0.1c-0.2,0-0.3-0.1-0.3-0.2c-0.1-1.3-0.7-2.6-1.7-3.6C16.1,6,16.1,5,16.1,4.8
		c0-0.1-0.1-0.3-0.2-0.4s-0.3-0.1-0.4-0.1l-3,0.8c-0.3-0.1-0.8-0.2-1.6-0.3c-0.3-0.1-0.7-0.1-1.1-0.1c-2.1,0-4,1.1-4.1,1.2
		C4.4,6.7,3.4,8,3,9.4C2.9,9.5,2.8,9.5,2.6,9.5c0-0.3,0-0.7-0.1-0.9C2.2,7.8,1.2,8.5,1.3,9.2c0,0.3,0.3,0.6,0.6,0.7
		c-0.1,0-0.3,0-0.4,0c-0.9-0.2-0.9-1.3-0.9-2C0.6,7.5,0.1,7.8,0,8c-0.1,1.2,0.3,2.7,1.8,2.5c0.3,0,0.5-0.2,0.6-0.4
		c0.2,0,0.3,0,0.5-0.1c-0.1,0.3-0.1,0.6-0.1,0.9c0,1.8,0.2,3.5,2.1,4.7c0.1,0.2,0.2,0.8,0.2,1.3c0,0.3,0.2,0.5,0.4,0.5l1.7,0.1
		c0,0,0,0,0,0c0,0,0,0,0,0c0.3,0,0.5-0.2,0.5-0.5c0-0.1,0-0.1,0-0.2c0-0.1,0-0.3,0-0.4c0.7,0.1,1.4,0.2,2.1,0.2c0.1,0,0.2,0,0.3,0
		c0,0.2,0.1,0.4,0.1,0.6c0,0.2,0.2,0.4,0.5,0.4c0,0,0,0,0,0l1.2,0c0.3,0,0.5-0.2,0.5-0.5c0-0.3,0-0.7,0.1-0.9c0,0,0.1,0,0.2,0
		c0.1,0,0.2,0,0.2,0c0.1,0.1,0.1,0.3,0.2,0.5c0.1,0.2,0.3,0.4,0.5,0.4l1.8-0.2c0.1,0,0.3-0.1,0.3-0.2c0.1-0.1,0.1-0.3,0.1-0.4
		c-0.1-0.3-0.1-0.7-0.2-0.8c0.3-0.3,0.4-0.5,0.5-0.8c0.1-0.2,0.1-0.3,0.2-0.4c0.5-0.6,1.4-0.6,1.7-0.6c0,0,0,0,0,0
		c0.1,0,0.3,0,0.4-0.1c0.1-0.1,0.1-0.2,0.1-0.3v-2.3C18.4,10.7,18.3,10.6,18.2,10.5z M1.8,9.1C1.7,8.9,1.8,8.7,2,8.9
		C2.1,9,2.1,9.2,2.2,9.3c0,0.1,0,0.1,0,0.1C2,9.4,1.9,9.3,1.8,9.1z M15.5,13.6c-0.2,0.2-0.3,0.4-0.4,0.6c-0.1,0.2-0.2,0.4-0.4,0.5
		c0,0,0,0-0.1,0.1c-0.1,0.1-0.3,0.3-0.1,1.1l-0.9,0.1c-0.2-0.7-0.4-0.8-0.6-0.9c-0.1,0-0.2,0-0.2,0c-0.1,0-0.3,0-0.4,0
		c-0.4,0-0.5,0-0.6,0.1c-0.1,0-0.1,0-0.1,0.1c-0.1,0.1-0.3,0.2-0.4,1.3l-0.3,0c-0.1-0.7-0.3-1-0.7-1c0,0,0,0,0,0l-0.2,0
		c-0.1,0-0.2,0-0.4,0c-0.7,0-1.5,0-2.1-0.2c0,0,0,0-0.1,0c0,0-0.1,0-0.1,0c-0.2,0-0.4,0.1-0.5,0.2c-0.2,0.2-0.2,0.5-0.2,0.8L6,16.5
		c0-0.9-0.2-1.5-0.6-1.7c-1.4-0.9-1.6-2-1.6-3.9c0-1.7,0.9-3.3,2.4-4.2c0,0,1.8-1,3.6-1c0.3,0,0.6,0,0.9,0.1C11.6,5.9,12,6,12.1,6
		c0.1,0.1,0.2,0.1,0.4,0.1c0,0,0,0,0,0c0,0,0,0,0,0s0,0,0,0l2.6-0.7c0,0.4-0.1,0.8-0.3,1c-0.1,0.1-0.1,0.2-0.1,0.4
		c0,0.1,0.1,0.3,0.2,0.3c1,0.9,1.6,2.1,1.7,3.3c0,0,0,0.1,0,0.1c0.2,0.4,0.5,0.7,0.9,0.8v1.4h0C16.9,12.8,16.1,13,15.5,13.6z
		 M5.5,2.2C5.5,1,6.5,0,7.7,0S10,1,10,2.2S9,4.5,7.7,4.5S5.5,3.5,5.5,2.2z M11.5,8.3c-0.1,0.3-0.4,0.4-0.6,0.3C8.4,7.7,7,9.1,7,9.2
		C6.9,9.3,6.8,9.3,6.6,9.3c-0.1,0-0.2,0-0.3-0.1C6.1,9,6.1,8.7,6.3,8.5c0.1-0.1,1.8-2,4.9-0.9C11.5,7.8,11.6,8,11.5,8.3z M15.5,9.5
		c0,0.4-0.2,0.7-0.5,0.7s-0.5-0.3-0.5-0.7c0-0.4,0.2-0.7,0.5-0.7C15.3,8.8,15.5,9.1,15.5,9.5z"/>
</g>
</svg>
