<?xml version="1.0" encoding="utf-8"?>
<!-- Generator: Adobe Illustrator 23.0.1, SVG Export Plug-In . SVG Version: 6.00 Build 0)  -->
<svg version="1.1" id="Layer_1" xmlns="http://www.w3.org/2000/svg" xmlns:xlink="http://www.w3.org/1999/xlink" x="0px" y="0px"
	 viewBox="0 0 12 12" style="enable-background:new 0 0 12 12;" xml:space="preserve">
<style type="text/css">
	.st0{fill:#12AB73;}
</style>
<g id="Guide">
</g>
<g>
	<g>
		<path class="st0" d="M6,0C2.7,0,0,2.7,0,6s2.7,6,6,6s6-2.7,6-6S9.3,0,6,0z M6,11c-2.8,0-5-2.2-5-5s2.2-5,5-5s5,2.2,5,5
			S8.8,11,6,11z"/>
		<path class="st0" d="M6.4,2.6c-1-0.2-2,0.4-2.3,1.3C4,4.1,4.2,4.4,4.4,4.5S5,4.4,5.1,4.2c0.1-0.4,0.7-0.8,1.1-0.6
			C6.6,3.6,7,4.2,6.9,4.6c-0.1,0.5-0.6,0.8-1,0.8c-0.1,0-0.3,0-0.4,0.1C5.4,5.6,5.3,5.7,5.3,5.9l0,1.6c0,0.3,0.2,0.5,0.5,0.5l0,0
			c0.3,0,0.5-0.2,0.5-0.5l0-1.1c0.8-0.1,1.4-0.8,1.6-1.6C8.1,3.8,7.4,2.8,6.4,2.6z"/>
		<path class="st0" d="M5.8,8.4L5.8,8.4c-0.3,0-0.5,0.2-0.5,0.5c0,0,0,0.1,0,0.1c0,0.3,0.2,0.4,0.5,0.5h0c0.3,0,0.5-0.3,0.5-0.5
			c0,0,0-0.1,0-0.1C6.3,8.6,6.1,8.4,5.8,8.4z"/>
	</g>
</g>
</svg>
