<?xml version="1.0" encoding="utf-8"?>
<!-- Generator: Adobe Illustrator 23.0.1, SVG Export Plug-In . SVG Version: 6.00 Build 0)  -->
<svg version="1.1" id="Layer_1" xmlns="http://www.w3.org/2000/svg" xmlns:xlink="http://www.w3.org/1999/xlink" x="0px" y="0px"
	 viewBox="0 0 427.8 280.5" style="enable-background:new 0 0 427.8 280.5;" xml:space="preserve">
<style type="text/css">
	.st0{fill:#494769;}
	.st1{fill:#FFB451;}
	.st2{fill:#9BABDE;}
	.st3{fill:#F7422E;}
	.st4{fill:#FE9800;}
	.st5{fill:#FFAA3B;}
	.st6{fill:#FBC6B4;}
	.st7{fill:#1D1B3A;}
	.st8{fill:#27123D;}
	.st9{fill:#E32E1B;}
	.st10{fill:#E13C22;}
	.st11{fill:#4E86D8;}
	.st12{fill:#F7B2A0;}
	.st13{fill:#E8DCD9;}
	.st14{fill:#F9F4F2;}
	.st15{fill:#FFFFFF;}
	.st16{fill:#6D2121;}
	.st17{fill:#F67986;}
	.st18{fill:#6196EB;}
	.st19{fill:#663006;}
	.st20{fill:#6FC3B9;}
	.st21{fill:#007253;}
	.st22{fill:#00563B;}
	.st23{fill:#00937E;}
	.st24{opacity:0.1;}
</style>
<g>
	<g>
		<g>
			<g>
				<path class="st0" d="M189.9,106.5l0.4-2.9c0-0.2,7.1,1.4,7.2,1.5l-0.9,2.7C196.7,107.8,189.9,106.3,189.9,106.5z"/>
			</g>
			<g>
				<path class="st0" d="M179.7,106.1l-0.2-2.9c0-0.1,7.3-0.2,7.3,0l-0.2,2.9C186.5,105.9,179.7,106,179.7,106.1z"/>
			</g>
			<g>
				<path class="st0" d="M170,108.5l-1.2-2.6c-0.1-0.3,7-2.5,7.1-2.2l0.5,2.8C176.3,106.3,169.9,108.3,170,108.5z"/>
			</g>
			<g>
				<path class="st0" d="M162.3,114.6l-2.3-1.8c-0.1-0.1,1.2-1.4,2.6-2.8c1.3-1.4,3-2.3,3-2.3l1.6,2.4c0.1,0.1-1.5,0.8-2.6,2
					C163.4,113.3,162.2,114.5,162.3,114.6z"/>
			</g>
			<g>
				<path class="st0" d="M158.1,123.7l-2.7-1c-0.4,0.1,2.5-6.9,2.6-6.8l2.5,1.4C160.4,117.2,157.9,123.5,158.1,123.7z"/>
			</g>
			<g>
				<path class="st0" d="M155.5,134.3l-2.5-1.6c0,0,0.2-0.4,0.4-1c0.1-0.6,0.3-1.5,0.5-2.3c0.4-1.7,0.8-3.3,0.8-3.3l2.7,1.2
					c0,0-0.4,1.8-0.8,3.6c-0.2,0.9-0.4,1.8-0.6,2.5C155.7,133.9,155.5,134.3,155.5,134.3z"/>
			</g>
			<g>
				<path class="st0" d="M149.9,143.6l-2.1-2.2c-0.1-0.1,1.3-1.1,2.1-2.7c0.9-1.4,1.8-2.9,1.7-2.9l2.4,1.8c0.1,0-0.9,1.6-1.9,3.1
					C151.4,142.4,149.9,143.6,149.9,143.6z"/>
			</g>
		</g>
		<g>
			<g>
				<path class="st0" d="M140.8,149.5l-1.4-2.7c0,0.1,1.6-0.6,3.1-1.4c1.6-0.7,2.8-1.9,2.9-1.8l1.9,2.4c0-0.1-1.4,1.2-3.1,2
					C142.5,148.9,140.9,149.6,140.8,149.5z"/>
			</g>
			<g>
				<path class="st0" d="M130.1,151.5l-0.7-2.9c0,0,1.7-0.1,3.4-0.3c1.7-0.3,3.4-0.6,3.4-0.6l1.2,2.7c0,0-1.8,0.3-3.6,0.7
					C131.9,151.4,130.1,151.5,130.1,151.5z"/>
			</g>
			<g>
				<path class="st0" d="M119.1,151.2l0.1-2.9c0,0,1.7,0.2,3.4,0.3c1.7,0.1,3.4,0.1,3.4,0.1l0.5,2.9c0,0-1.8,0-3.7-0.1
					C121,151.4,119.1,151.2,119.1,151.2z"/>
			</g>
			<g>
				<polygon class="st0" points="108.5,150.1 108.8,147.2 115.8,148 115.6,150.9 				"/>
			</g>
			<g>
				<path class="st0" d="M99.1,151.2l-1.4-2.5c0,0,1.7-1,3.6-1.4c1-0.2,1.9-0.4,2.8-0.4c0.7,0,1.1,0.1,1.1,0.1l-0.1,2.9
					c0,0-0.4,0-1.1-0.1c-0.5,0-1.3,0.1-2,0.3C100.4,150.4,99.1,151.2,99.1,151.2z"/>
			</g>
			<g>
				<path class="st0" d="M93.2,158.4l-2.7-1c0,0,0.2-0.4,0.5-1.1c0.3-0.7,0.7-1.5,1.2-2.3c1-1.7,2.4-3,2.4-3l2,2.1
					c0,0-1.2,1.1-2,2.5C93.7,156.8,93.2,158.4,93.2,158.4z"/>
			</g>
			<g>
				<path class="st0" d="M91.7,168.3l-2.9,0c0,0-0.1-0.5,0-1.1c0-0.7,0.1-1.6,0.1-2.5c0.1-1.8,0.5-3.7,0.5-3.7l2.8,0.6
					c0,0-0.1,0.4-0.2,1c-0.1,0.6-0.3,1.4-0.3,2.3c0,0.9-0.1,1.7-0.1,2.3C91.7,167.8,91.7,168.3,91.7,168.3z"/>
			</g>
		</g>
	</g>
	<g>
		<g>
			<g>
				<polygon class="st1" points="292.1,89.7 291.7,86.9 297.8,86 298.2,88.9 				"/>
			</g>
			<g>
				<path class="st1" d="M282.8,90.8l-0.3-2.9c0,0,1.5-0.2,3.1-0.3c1.5-0.2,3.1-0.4,3.1-0.4l0.4,2.9c0,0-1.5,0.2-3.1,0.4
					C284.4,90.7,282.8,90.8,282.8,90.8z"/>
			</g>
			<g>
				<polygon class="st1" points="273.6,91.6 273.4,88.7 279.6,88.3 279.8,91.1 				"/>
			</g>
			<g>
				<polygon class="st1" points="264.3,91.9 264.3,89 270.4,88.9 270.5,91.8 				"/>
			</g>
			<g>
				<path class="st1" d="M255,91.4l0.3-2.9c0,0,1.5,0.2,3,0.2c1.5,0.1,3.1,0.1,3.1,0.1l-0.1,2.9c0,0-1.6-0.1-3.1-0.1
					C256.5,91.6,255,91.4,255,91.4z"/>
			</g>
			<g>
				<path class="st1" d="M245.6,90l0.8-2.8c0,0,1.5,0.3,2.9,0.6c1.5,0.3,2.9,0.5,2.9,0.5l-0.4,2.9c0,0-1.6-0.2-3.2-0.5
					C247.1,90.4,245.6,90,245.6,90z"/>
			</g>
			<g>
				<path class="st1" d="M236.5,87l1.5-2.5c-0.1,0.2,5.5,2.2,5.6,2.1l-1,2.7C242.5,89.4,236.5,87.1,236.5,87z"/>
			</g>
		</g>
		<g>
			<g>
				<path class="st1" d="M228.6,81.7l2-2.1c0,0,1.1,1,2.3,1.9c1.2,0.8,2.5,1.6,2.5,1.6l-1.6,2.4c0,0-1.3-0.9-2.7-1.8
					C229.8,82.7,228.6,81.7,228.6,81.7z"/>
			</g>
			<g>
				<path class="st1" d="M222.9,74.1l2.4-1.6c0,0,0.7,1.3,1.5,2.6c0.9,1.2,1.8,2.4,1.8,2.4l-2.2,2c0,0-1-1.3-1.9-2.6
					C223.7,75.5,222.9,74.1,222.9,74.1z"/>
			</g>
			<g>
				<path class="st1" d="M219.4,65.2l2.7-1c0,0,0.4,1.4,1,2.8c0.5,1.4,1.1,2.8,1.1,2.8l-2.5,1.4c0,0-0.6-1.5-1.2-3
					C219.9,66.7,219.4,65.2,219.4,65.2z"/>
			</g>
			<g>
				<path class="st1" d="M216.6,56.4l2.7-1c0,0,0.6,1.5,1,3c0.5,1.5,0.9,3,0.9,3l-2.7,0.9c0,0-0.5-1.5-0.9-2.9
					C217.1,57.8,216.6,56.4,216.6,56.4z"/>
			</g>
			<g>
				<path class="st1" d="M212.4,48.8l2.2-1.9c0,0,0.3,0.3,0.7,0.8c0.4,0.5,0.8,1.2,1.3,1.9c0.9,1.4,1.5,2.9,1.5,2.9l-2.6,1.2
					c0,0-0.6-1.3-1.4-2.6c-0.4-0.6-0.8-1.2-1.1-1.6C212.6,49.1,212.4,48.8,212.4,48.8z"/>
			</g>
			<g>
				<path class="st1" d="M205.6,44l1.1-2.7c0,0,1.5,0.6,3,1.4c0.7,0.5,1.4,0.9,1.9,1.2c0.5,0.4,0.8,0.7,0.8,0.7l-1.9,2.2
					c0,0-1.1-0.9-2.3-1.6C206.9,44.5,205.6,44,205.6,44z"/>
			</g>
			<g>
				<path class="st1" d="M197,42.2l0.2-2.9c0-0.1,6.4,0.8,6.3,1l-0.7,2.8C202.9,43,197,42.1,197,42.2z"/>
			</g>
		</g>
		<g>
			<g>
				<path class="st1" d="M188.1,42.4l-0.4-2.9c0-0.2,6.4-0.4,6.4-0.4l0,2.9C194.1,42,188.1,42.2,188.1,42.4z"/>
			</g>
			<g>
				<path class="st1" d="M179.6,44.6l-1.1-2.6c0,0,0.4-0.2,0.9-0.4c0.5-0.3,1.3-0.5,2.1-0.7c1.6-0.4,3.1-0.9,3.1-0.9l0.6,2.8
					c0,0-1.4,0.4-2.8,0.8c-0.7,0.2-1.4,0.4-1.9,0.6C180,44.5,179.6,44.6,179.6,44.6z"/>
			</g>
			<g>
				<path class="st1" d="M172.3,49.3l-1.9-2.2c0,0,1.2-1.1,2.5-2c1.4-0.9,2.8-1.7,2.8-1.7l1.4,2.5c0,0-1.3,0.8-2.5,1.5
					C173.4,48.3,172.3,49.3,172.3,49.3z"/>
			</g>
			<g>
				<path class="st1" d="M166.7,56l-2.5-1.5c-0.2-0.1,3.7-5.3,3.9-5.2l2.1,1.9C170.1,51.2,166.6,55.9,166.7,56z"/>
			</g>
			<g>
				<path class="st1" d="M163.3,64.1l-2.8-0.8c-0.2,0,2.1-6.1,2.2-6l2.6,1.2C165.3,58.5,163.2,64,163.3,64.1z"/>
			</g>
			<g>
				<path class="st1" d="M161.9,72.8l-2.9-0.2c0,0,0.1-1.6,0.3-3.2c0.2-1.6,0.5-3.2,0.5-3.2l2.8,0.6c0,0-0.3,1.5-0.5,2.9
					C162,71.4,161.9,72.8,161.9,72.8z"/>
			</g>
			<g>
				<path class="st1" d="M162.3,81.7l-2.9,0.4c-0.2,0-0.6-6.3-0.5-6.3l2.9,0C161.7,75.8,162.2,81.8,162.3,81.7z"/>
			</g>
		</g>
	</g>
	<g>
		<g>
			<path class="st2" d="M248.6,72c0-4.3,3.5-7.8,7.7-7.8c4.3,0,7.7,3.5,7.7,7.8c0,4.3-3.5,7.7-7.7,7.7
				C252.1,79.7,248.6,76.3,248.6,72z M250.7,72c0,3.1,2.5,5.6,5.6,5.6c3.1,0,5.6-2.5,5.6-5.6c0-3.1-2.5-5.6-5.6-5.6
				C253.3,66.4,250.7,68.9,250.7,72z"/>
		</g>
	</g>
	<g>
		<g>
			<path class="st3" d="M132.1,134.5l1.4-1.6l-6.7-6.1c-2-1.8-2.1-4.9-0.3-6.9l4.9-5.4c1.3-1.4,1.9-3.2,1.8-5.1
				c-0.1-1.9-0.9-3.6-2.3-4.9l-4.4-4c-1-0.9-1.6-2.1-1.6-3.4c0-1.3,0.4-2.6,1.3-3.6l4.4-4.7c1.4-1.4,2-3.3,1.9-5.3
				c-0.1-1.9-1.1-3.7-2.6-5l-3-2.5c-1.1-0.9-1.8-2.2-1.8-3.7c0-1.4,0.6-2.8,1.6-3.8L133,63l-1.4-1.6l-6.3,5.7
				c-1.5,1.4-2.4,3.3-2.3,5.4c0.1,2.1,1,4,2.6,5.3l3,2.5c1.1,0.9,1.7,2.1,1.8,3.5c0.1,1.4-0.4,2.7-1.3,3.7l-4.4,4.7
				c-1.3,1.4-2,3.2-1.9,5.1c0.1,1.9,0.9,3.6,2.3,4.9l4.4,4c1,0.9,1.5,2.1,1.6,3.4c0.1,1.3-0.4,2.6-1.3,3.5l-4.9,5.4
				c-2.6,2.9-2.4,7.3,0.4,9.9L132.1,134.5z"/>
		</g>
	</g>
	<g>
		<path class="st4" d="M326.7,74.8h-33.6c0,0-28.8,133.7-174.3,120.6c0,0,37,60,120.2,35.1C315,207.8,331.8,100,326.7,74.8z"/>
	</g>
	<g>
		<g>
			<polygon class="st4" points="323.6,74.8 326.7,74.8 309.4,0 293.1,74.8 296.2,74.8 309.5,15.4 			"/>
		</g>
	</g>
	<g>
		<g>
			<polygon class="st5" points="68.9,130 74.2,72.2 79.1,129.5 82.9,129.2 76.2,51 72.5,51 65.2,129.7 			"/>
		</g>
	</g>
	<g>
		<path class="st6" d="M142.4,211.2c-24.8,28.5-20.1,51.5-39.1,53.3c-2.1,0.2-7.1-2.1-8.3-0.6c-1.2,1.5,8.7,11.7,17.1,7.6
			c0,0,18.2-8.4,34.6-29.6C166.7,216.2,167.2,182.7,142.4,211.2z"/>
	</g>
	<g>
		<path class="st7" d="M297.7,110.5c-2.1-9.5-36-19.1-50.8,12.2c-7.5,15.8-15,12.7-24.7,17.4c-23.2,11.3-17.6,56.7,33.3,49.7
			c51-7,33.5-17.1,42.2-31.1c0,0-5.3-9.8-4.9-20.7C293.1,128.2,299.3,117.6,297.7,110.5z"/>
	</g>
	<g>
		<path class="st7" d="M273.2,103.3c7.5-3.4,25.6-2.8,28.7,16.5c2,12-6.2,15.7-3,26.4c9.2,31.1-50.4,32.2-51,7.1
			C246.9,113.9,258.2,110.2,273.2,103.3z"/>
	</g>
	<g>
		<path class="st8" d="M279,125.9c0,0-18.4-9.8-26.4,5.1c-6.1,11.5-9.2,2.8-19.2,8.6c-21.8,12.6-31.9,58.9,17,31.3
			c26.2-14.8,27.9-15.4,31.7-24.3L279,125.9z"/>
	</g>
	<g>
		<path class="st6" d="M210.1,161c12.3-34.9,16.6-30.6,16.9-29.3c0.5,1.8,2.8,8.5-3.1,15.8c-4.1,5-10.9,26.6-4.8,28.9
			c4.5,1.7,12.5-20.2,12.5-20.2l14.2,5.1l-11.9,17.4l-8.3,6.9c5.4,0,19-1.8,19-1.8l4.6,23.8c0,0-29.2,4.9-39.4-5.2
			C207.2,199.9,199,192.5,210.1,161z"/>
	</g>
	<g>
		<path class="st9" d="M267.4,142.9c3.6,3.4,7,13.4-4.2,23.6c-7.3,6.6-14.8,11-14.8,11s-17-6-19-21.6
			C229.3,155.9,254,130.1,267.4,142.9z"/>
	</g>
	<g>
		<path class="st10" d="M269.9,223.9C269.9,223.9,269.9,224,269.9,223.9C269.9,224,269.9,223.9,269.9,223.9c0.1-0.4,0.2-0.8,0.3-1.3
			c4.6-16.5,6.8-27.3,19.8-39c18.6-16.7,4.3-28.5-4.2-35.9c-8.5-7.4-24.4-16.6-38.6-2.5c-10.2,10.2-15.7,28.5-26.3,41.5
			C210.1,200,267.4,243.5,269.9,223.9z"/>
	</g>
	<g>
		<path class="st11" d="M242.4,208.5c0,0,24.5,15.8-0.3,30.8c-24.8,15-70.2-19.9-80.5-14.2c-10.3,5.7-10.3,17.7-37,41.8
			c0,0-7.2,1.1-12.1-7.6c0,0,6.7-48.1,48.3-65.8C202.4,175.8,238,195.6,242.4,208.5z"/>
	</g>
	<g>
		<g>
			<path class="st12" d="M283.9,126.7c0,0-4.3,12.4-1.2,18.6c1.9,4-19.9,8.7-18.7,4c1.5-6.1,5.6-9.4,2.7-17L283.9,126.7z"/>
		</g>
	</g>
	<g>
		<g>
			<path class="st6" d="M272.8,107.3c-6,4.6-22.2,28.4-10.6,35.2c5.2,3.1,17.5-0.3,25-9.5c3.1-3.8,4.1-12.8,0.8-20.9
				C286.5,108.4,279.7,102,272.8,107.3z"/>
		</g>
	</g>
	<g>
		<g>
			<path class="st7" d="M264.1,115c-1,3.1,9.1-6.1,9.9,0.9c0.8,7.4,8.9,8.7,7.9,21.7c-0.7,8.9,11.6-6.9,12.6-7.9
				c4-4.5,4-4.5,0.3-16.1C291,101.9,269.2,99.2,264.1,115z"/>
		</g>
	</g>
	<g>
		<g>
			<g>
				<g>
					<path class="st13" d="M215.7,138.2c-0.2,2.7,1.8,5.1,4.5,5.4c2.7,0.2,5.1-1.8,5.4-4.5c0.2-2.7-1.8-5.1-4.5-5.4
						C218.3,133.5,215.9,135.5,215.7,138.2z M217,138.3c0.2-2,2-3.5,4-3.3c2,0.2,3.5,2,3.3,4c-0.2,2-1.9,3.5-4,3.3
						C218.3,142.1,216.8,140.3,217,138.3z"/>
				</g>
			</g>
			<g>
				<polygon class="st14" points="220.9,153.1 235.3,154.4 239.2,128.9 221.6,127.3 				"/>
			</g>
			<g>
				<path class="st13" d="M238.5,129.3c0,0-9.4,0.8-12,2.4c-1.6,0.9-8,3.3-1.7,7.4c2.1,1.3,0.1,4.6,1.7,6.4c6.9,7.8-5.6,7.6-5.6,7.6
					l0.8-25.8L238.5,129.3z"/>
			</g>
			<g>
				<path class="st15" d="M221.6,127.3c-0.1,0.7,3.8,1.7,8.6,2.1c4.8,0.4,8.8,0.2,8.9-0.5c0.1-0.7-3.8-1.7-8.6-2.1
					C225.7,126.3,221.7,126.5,221.6,127.3z"/>
			</g>
			<g>
				<path class="st16" d="M223,127.6c-0.1,0.6,3.2,1.4,7.2,1.8c4.1,0.4,7.4,0.2,7.5-0.5c0.1-0.6-3.2-1.4-7.2-1.8
					C226.4,126.8,223.1,127,223,127.6z"/>
			</g>
			<g>
				<path class="st14" d="M220.8,153.1c-0.1,0.6,3.1,1.4,7.1,1.8c4,0.4,7.3,0.2,7.3-0.5c0.1-0.6-3.1-1.4-7.1-1.8
					C224.2,152.3,220.9,152.5,220.8,153.1z"/>
			</g>
		</g>
		<g>
			<path class="st16" d="M231.8,125.5c0,0,4.9-6,1.1-10.5c-3.8-4.5-0.3-7.6-0.3-7.6s-4.1,2.9-2,8
				C232.8,120.5,233.3,121.6,231.8,125.5z"/>
		</g>
		<g>
			<path class="st16" d="M228.7,127.9c0,0,2.9-3.6,0.7-6.2c-2.2-2.7-0.2-4.5-0.2-4.5s-2.4,1.7-1.2,4.8
				C229.3,124.9,229.6,125.6,228.7,127.9z"/>
		</g>
	</g>
	<g>
		<path class="st7" d="M176.1,192.5l18.2,34.2l-6.3,5.5c0,0-10-29.8-22.6-38.7C155.5,186.5,176.1,192.5,176.1,192.5z"/>
	</g>
	<g>
		<g>
			<path class="st17" d="M164.6,176.2c-36.2,10.6-44.6,32.5-61.7,23.8c-1.8-1-4.9-5.6-6.7-5c-1.8,0.7,1,14.6,10.3,15.7
				c0,0,19.9,2.8,45.1-6.2C182.4,193.5,200.8,165.6,164.6,176.2z"/>
		</g>
		<g>
			<path class="st18" d="M256.2,227.5c0.9,8.1-2.8,26.2-29.8,24.4c-29-1.9-41-50.7-52.7-51.8c-11.7-1.1-18.5,9-54.1,14
				c0,0-7.1-5.3-6.4-15.3c0,0,39.5-35,66.4-29.7C224.1,177.7,254.4,210.6,256.2,227.5z"/>
		</g>
	</g>
	<g>
		<path class="st7" d="M261.4,177.4c0,0-15,6.8-23.7,6c-8.6-0.8,13,7.9,13,7.9l17.2-11.7L261.4,177.4z"/>
	</g>
	<g>
		<path class="st6" d="M228.4,135.5c1.2,1.5,6,6.6,3.5,15.7c-2.5,9.1,7.9,34.2,15,34.9c2,0.2,18.7-9.9,18.7-9.9l13.8,20
			c0,0-24.7,16.2-38.1,11.1c-3.4-1.3-13.9-4.8-16.5-38.2C222,132.3,227.7,134.5,228.4,135.5z"/>
	</g>
	<g>
		<path class="st9" d="M295.5,161.6c3.7,3.1,7.6,12.5-2.6,23.1c-6.6,6.9-13.6,11.5-13.6,11.5s-16.8-4.7-19.8-19.6
			C259.6,176.6,281.8,150.1,295.5,161.6z"/>
	</g>
	<g>
		<path class="st5" d="M65.2,129.7c0,158.2,143.1,148,143.1,148C370.1,261.8,326.7,74.8,326.7,74.8
			c5.1,135.7-119.8,156.4-158.5,147.3c-65.7-15.4-85.3-92.9-85.3-92.9L65.2,129.7z"/>
	</g>
	<g>
		<g>
			<path class="st6" d="M164.6,176.2c-36.2,10.6-44.6,32.5-61.7,23.8c-1.8-1-4.9-5.6-6.7-5c-1.8,0.7,1,14.6,10.3,15.7
				c0,0,19.9,2.8,45.1-6.2C182.4,193.5,200.8,165.6,164.6,176.2z"/>
		</g>
		<g>
			<path class="st18" d="M173.7,200.1c-11.7-1.1-18.5,9-54.1,14c0,0-7.1-5.3-6.4-15.3c0,0,39.5-35,66.4-29.7
				C224.1,177.7,185.5,201.2,173.7,200.1z"/>
		</g>
	</g>
	<g>
		<g>
			<g>
				<path class="st19" d="M390.7,193.8c0,4.5,3.7,8.2,8.2,8.2c4.5,0,8.2-3.7,8.2-8.2c0-4.5-3.7-8.2-8.2-8.2
					C394.4,185.6,390.7,189.2,390.7,193.8z"/>
			</g>
			<g>
				<path class="st19" d="M366.4,185.8c0,8.9,7.3,16.2,16.2,16.2c9,0,16.2-7.2,16.2-16.2c0-8.9-7.3-16.2-16.2-16.2
					C373.7,169.6,366.4,176.9,366.4,185.8z"/>
			</g>
			<g>
				<path class="st19" d="M358.3,189.5c0,4.4,3.6,7.9,8,7.9c4.4,0,8-3.5,8-7.9c0-4.4-3.6-7.9-8-7.9
					C361.9,181.6,358.3,185.1,358.3,189.5z"/>
			</g>
			<g>
				<path class="st19" d="M352.2,188c0,3.4,2.7,6.1,6.1,6.1c3.4,0,6.1-2.7,6.1-6.1s-2.7-6.1-6.1-6.1
					C355,181.9,352.2,184.7,352.2,188z"/>
			</g>
			<g>
				<path class="st19" d="M343.5,189.9c0,3.9,3.1,7,7,7c3.9,0,7-3.1,7-7c0-3.9-3.2-7-7-7C346.7,182.9,343.5,186,343.5,189.9z"/>
			</g>
		</g>
		<g>
			<path class="st3" d="M337,186.6h30.1h9.7H407c0,0,2.2,62.5-21.6,93.7h-8.6h-9.7h-8.6C334.9,249.1,337,186.6,337,186.6z"/>
		</g>
		<g>
			<rect x="333.7" y="183.4" class="st9" width="77.1" height="9.7"/>
		</g>
		<g>
			<g>
				<g>
					<path class="st20" d="M372.5,172.7c0,0,12.4-41.7,50.9-24.8c5.4,2.4-1.4,11.5-15.5,19.3C398.8,172.2,391.4,173.9,372.5,172.7z"
						/>
				</g>
				<g>
					<path class="st21" d="M372.5,172.7c0,0,17.2-22.2,39.4-19.9c0,0-19.7,0.9-37.3,20.1L372.5,172.7z"/>
				</g>
			</g>
			<g>
				<path class="st19" d="M374.8,183.4c0,0,17-72.5-4.8-122.6c0,0-4.6-6.5,0,14c4.6,20.5,10.1,46.6,0.7,108.6H374.8z"/>
			</g>
			<g>
				<path class="st20" d="M370.9,70.5c0,0,34.1-39.5-7.9-67.6c-5.9-3.9-10.7,8.9-9.5,28.2C354.3,43.6,357.4,52.2,370.9,70.5z"/>
			</g>
			<g>
				<path class="st21" d="M370.9,70.5c0,0,11.3-31.8-5.4-52.8c0,0,11.9,20.5,3.9,50.7L370.9,70.5z"/>
			</g>
			<g>
				<path class="st21" d="M374.6,97.7c0,0-3.6-52.1-53.1-42.5c-7,1.4-1.4,13.9,13.1,26.7C343.9,90.3,352.1,94.2,374.6,97.7z"/>
			</g>
			<g>
				<path class="st22" d="M374.6,97.7c0,0-14.3-30.6-41-33.7c0,0,22.8,6.2,38.4,33.3L374.6,97.7z"/>
			</g>
			<g>
				<g>
					<path class="st21" d="M377.4,138c0,0-3.1-45.4-46.3-37c-6.1,1.2-1.2,12.1,11.4,23.3C350.7,131.5,357.9,134.9,377.4,138z"/>
				</g>
				<g>
					<path class="st20" d="M377.4,138c0,0-12.5-26.6-35.7-29.4c0,0,19.9,5.4,33.5,29L377.4,138z"/>
				</g>
			</g>
			<g>
				<g>
					<path class="st21" d="M374.6,169.3c0,0-21.2-52.9-69.4-26.1c-6.8,3.8,3.2,14.9,22.6,23.3C340.3,171.9,350.1,173.2,374.6,169.3z
						"/>
				</g>
				<g>
					<path class="st22" d="M374.6,169.3c0,0-25.2-26.9-53.9-21.2c0,0,25.8-1.2,51.1,21.6L374.6,169.3z"/>
				</g>
			</g>
			<g>
				<g>
					<path class="st22" d="M375.8,120.6c4.6-0.7-0.1-27.1-18.2-32.5c-18.2-5.4-22.3-2.5-20.6,1.6c2,4.7,10,21.4,20.9,22.8
						C371.2,114,372.8,121,375.8,120.6z"/>
				</g>
				<g>
					<path class="st21" d="M376.6,120.1c0,0-9.8-24.1-30.4-27.4c0,0,18.2,6.3,29.5,27.8L376.6,120.1z"/>
				</g>
			</g>
			<g>
				<g>
					<path class="st22" d="M371.7,77c3.3-0.2,1.6-19.3-10.9-24.3c-12.6-5-15.7-3.2-14.7-0.2c1.1,3.5,5.7,15.9,13.4,17.5
						C368.9,72.1,369.6,77.1,371.7,77z"/>
				</g>
				<g>
					<path class="st21" d="M372.4,76.8c0,0-5.4-17.8-19.8-21.4c0,0,12.6,5.7,19.2,21.6L372.4,76.8z"/>
				</g>
			</g>
			<g>
				<g>
					<path class="st22" d="M378.2,152.1c0,3.9-22.5,3.1-29.2-11.4c-6.6-14.5-4.6-18.2-1.1-17.3c4.2,1.1,19,5.8,21.4,14.7
						C372.3,149.1,378.2,149.6,378.2,152.1z"/>
				</g>
				<g>
					<path class="st21" d="M378,152.9c0,0-21.2-5.3-26.3-22c0,0,7.4,14.4,26.6,21.2L378,152.9z"/>
				</g>
			</g>
			<g>
				<g>
					<path class="st23" d="M377.9,146.3c-4.5-1.3,3.7-26.9,22.4-29.8c18.7-3,22.4,0.5,20.2,4.3c-2.6,4.4-12.7,19.9-23.8,19.8
						C383.2,140.4,380.8,147.1,377.9,146.3z"/>
				</g>
				<g>
					<path class="st20" d="M377.1,145.7c0,0,12.9-22.6,33.7-23.1c0,0-18.9,3.9-32.9,23.7L377.1,145.7z"/>
				</g>
			</g>
			<g>
				<g>
					<path class="st23" d="M376.8,93.2c-3-0.9,4.8-36.3,23.8-42.4c23.5-7.6,29-3.2,26.8,2.1c-2.5,6.1-13,27.9-27.3,29.7
						C382.7,84.7,380.5,94.4,376.8,93.2z"/>
				</g>
				<g>
					<path class="st20" d="M375.6,92.6c0,0,12.8-31.4,39.6-35.7c0,0-23.8,8.3-38.4,36.3L375.6,92.6z"/>
				</g>
			</g>
			<g>
				<g>
					<path class="st20" d="M376.8,130.8c0,0,3.1-45.4,46.3-37c6.1,1.2,1.2,12.1-11.4,23.3C403.5,124.3,396.4,127.7,376.8,130.8z"/>
				</g>
				<g>
					<path class="st21" d="M376.8,130.8c0,0,12.5-26.6,35.7-29.4c0,0-19.9,5.4-33.5,29L376.8,130.8z"/>
				</g>
			</g>
			<g>
				<g>
					<path class="st22" d="M375,82.5c0,0-19.4-36.5,18-50.8c5.3-2,6.7,8.7,2.4,23.5C392.5,64.6,388.6,70.7,375,82.5z"/>
				</g>
				<g>
					<path class="st21" d="M375,82.5c0,0-3.2-26.5,13.4-39.8c0,0-12.8,13.7-11.9,38.5L375,82.5z"/>
				</g>
			</g>
			<g>
				<g>
					<path class="st22" d="M380.4,111.2c-2.7-0.1-1.5-15.6,8.6-19.8c10.1-4.2,12.7-2.7,11.9-0.3c-0.9,2.8-4.5,12.9-10.7,14.3
						C382.6,107.1,382.1,111.2,380.4,111.2z"/>
				</g>
				<g>
					<path class="st21" d="M379.9,110.9c0,0,4.2-14.4,15.9-17.5c0,0-10.1,4.7-15.3,17.7L379.9,110.9z"/>
				</g>
			</g>
			<g>
				<g>
					<path class="st22" d="M375.1,171.5c-2.7-0.1-1.5-15.6,8.6-19.7c10.1-4.2,12.7-2.7,11.9-0.3c-0.8,2.8-4.5,12.9-10.7,14.3
						C377.3,167.5,376.8,171.6,375.1,171.5z"/>
				</g>
				<g>
					<path class="st21" d="M374.5,171.3c0,0,4.2-14.4,15.9-17.5c0,0-10.1,4.7-15.3,17.7L374.5,171.3z"/>
				</g>
			</g>
			<g>
				<g>
					<path class="st23" d="M374.4,171.9c0.1-4.7,27-2.9,34.4,14.5c7.4,17.4,4.9,21.9,0.7,20.6c-4.9-1.4-22.4-7.5-25-18.3
						C381.4,175.7,374.3,174.9,374.4,171.9z"/>
				</g>
				<g>
					<path class="st20" d="M374.7,171c0,0,25.1,7,30.6,27.1c0,0-8.3-17.4-31-26.2L374.7,171z"/>
				</g>
			</g>
		</g>
	</g>
	<g>
		<g>
			<path class="st7" d="M62.7,231.7H12.5c-6.7,0-12.2-3.7-12.5-8.2h75.3C74.9,228.1,69.5,231.7,62.7,231.7z"/>
		</g>
		<g>
			<rect x="36.5" y="226.5" class="st7" width="2.3" height="54"/>
		</g>
		<g>
			<polygon class="st7" points="60.5,226.7 71.4,280.5 69.1,280.5 58.3,226.9 			"/>
		</g>
		<g>
			<polygon class="st7" points="18.3,226.9 7.5,280.5 5.2,280.5 16.1,226.7 			"/>
		</g>
		<g>
			<rect x="11.7" y="252.9" class="st7" width="54.3" height="2.2"/>
		</g>
	</g>
	<g>
		<g>
			<g>
				<path class="st21" d="M45.4,201.9c0,0,22.3-56.1-4.5-58c0,0-31.4-5.5-8.8,58H45.4z"/>
			</g>
			<g>
				<g>
					<path class="st22" d="M46.9,145.7c0.6,0.3,1.1,0.7,1.6,1.1c2.8,8.9,5,26.4-3.8,55.1h-1.1C52.9,171.8,49.7,153.9,46.9,145.7z"/>
				</g>
				<g>
					<path class="st22" d="M40.5,143.9c0.3,0,0.4,0.1,0.4,0.1c0.3,0,0.5,0.1,0.8,0.1c2.2,9.3,5.5,30.6-0.9,57.9h-1.1
						C46.1,174.3,42.6,152.9,40.5,143.9z"/>
				</g>
				<g>
					<path class="st22" d="M36.7,144c0.4-0.1,0.8-0.1,1.2-0.1c-2.5,8.9-6.8,30.4-0.3,58.1h-1.1C30.2,174.6,34.2,153.3,36.7,144z"/>
				</g>
				<g>
					<path class="st22" d="M29.9,147.1c0.5-0.4,0.9-0.8,1.4-1.1c-2.7,9.1-5.5,27.5,1.9,55.9h-1.1C25.1,174.9,27.3,156.7,29.9,147.1z
						"/>
				</g>
			</g>
			<g class="st24">
				<path d="M49.2,190.6c-2,6.7-3.8,11.4-3.8,11.4H32.1c-4.1-11.4-6.4-20.6-7.5-28C28.8,183.5,38.2,190.3,49.2,190.6z"/>
			</g>
		</g>
		<g>
			<g>
				<path class="st22" d="M35.5,201c0,0,10-25.2-2-26.1c0,0-14.1-2.5-3.9,26.1H35.5z"/>
			</g>
			<g>
				<g>
					<path class="st20" d="M36.2,175.7c0.3,0.1,0.5,0.3,0.7,0.5c1.2,4,2.3,11.9-1.7,24.8h-0.5C38.9,187.5,37.5,179.4,36.2,175.7z"/>
				</g>
				<g>
					<path class="st20" d="M33.3,174.9c0.1,0,0.2,0,0.2,0c0.1,0,0.2,0,0.3,0c1,4.2,2.5,13.8-0.4,26.1h-0.5
						C35.8,188.6,34.3,178.9,33.3,174.9z"/>
				</g>
				<g>
					<path class="st20" d="M31.6,174.9c0.2,0,0.4,0,0.5-0.1c-1.1,4-3.1,13.7-0.2,26.1h-0.5C28.7,188.7,30.5,179.1,31.6,174.9z"/>
				</g>
				<g>
					<path class="st20" d="M28.6,176.3c0.2-0.2,0.4-0.3,0.6-0.5c-1.2,4.1-2.5,12.4,0.9,25.2h-0.5C26.4,188.9,27.4,180.7,28.6,176.3z
						"/>
				</g>
			</g>
			<g class="st24">
				<path d="M37.2,195.9c-0.9,3-1.7,5.1-1.7,5.1h-6c-1.8-5.1-2.9-9.3-3.4-12.6C28,192.7,32.3,195.8,37.2,195.9z"/>
			</g>
		</g>
		<g>
			<g>
				<path class="st20" d="M47.7,206c0,0,6.2-15.7-1.3-16.2c0,0-8.8-1.5-2.5,16.2H47.7z"/>
			</g>
			<g>
				<g>
					<path class="st21" d="M48.1,190.3c0.2,0.1,0.3,0.2,0.5,0.3c0.8,2.5,1.4,7.4-1.1,15.4h-0.3C49.8,197.6,48.9,192.6,48.1,190.3z"
						/>
				</g>
				<g>
					<path class="st21" d="M46.3,189.8c0.1,0,0.1,0,0.1,0c0.1,0,0.1,0,0.2,0c0.6,2.6,1.5,8.6-0.3,16.2h-0.3
						C47.9,198.3,46.9,192.3,46.3,189.8z"/>
				</g>
				<g>
					<path class="st21" d="M45.3,189.8c0.1,0,0.2,0,0.3,0c-0.7,2.5-1.9,8.5-0.1,16.2h-0.3C43.4,198.4,44.6,192.4,45.3,189.8z"/>
				</g>
				<g>
					<path class="st21" d="M43.4,190.7c0.1-0.1,0.3-0.2,0.4-0.3c-0.7,2.5-1.5,7.7,0.5,15.6H44C42,198.5,42.7,193.4,43.4,190.7z"/>
				</g>
			</g>
			<g class="st24">
				<path d="M48.8,202.8c-0.6,1.9-1.1,3.2-1.1,3.2H44c-1.1-3.2-1.8-5.8-2.1-7.8C43.1,200.9,45.7,202.8,48.8,202.8z"/>
			</g>
		</g>
		<g>
			<g>
				<path class="st19" d="M32.8,199.2c0,1.6-1.4,2.9-3.2,2.9c-1.8,0-3.2-1.3-3.2-2.9c0-1.6,1.4-2.9,3.2-2.9
					C31.3,196.3,32.8,197.6,32.8,199.2z"/>
			</g>
			<g>
				<path class="st19" d="M42.2,196.3c0,3.2-2.8,5.8-6.3,5.8c-3.5,0-6.4-2.6-6.4-5.8c0-3.2,2.8-5.8,6.4-5.8
					C39.4,190.6,42.2,193.1,42.2,196.3z"/>
			</g>
			<g>
				<path class="st19" d="M45.4,197.7c0,1.6-1.4,2.8-3.1,2.8c-1.7,0-3.1-1.3-3.1-2.8s1.4-2.8,3.1-2.8
					C44,194.8,45.4,196.1,45.4,197.7z"/>
			</g>
			<g>
				<path class="st19" d="M47.8,197.2c0,1.2-1.1,2.2-2.4,2.2s-2.4-1-2.4-2.2c0-1.2,1.1-2.2,2.4-2.2S47.8,195.9,47.8,197.2z"/>
			</g>
			<g>
				<path class="st19" d="M51.2,197.8c0,1.4-1.2,2.5-2.8,2.5c-1.5,0-2.8-1.1-2.8-2.5c0-1.4,1.2-2.5,2.8-2.5
					C50,195.3,51.2,196.4,51.2,197.8z"/>
			</g>
		</g>
		<g>
			<path class="st4" d="M27,197h11.7h1.4h10.6c22.9,13.4,0,26.5,0,26.5H40.2h-1.4H27C27,223.5,4.2,210.4,27,197z"/>
		</g>
	</g>
	<g>
		<g>
			<path class="st15" d="M233.7,216.5l0.8-0.6c-0.3-0.4-29-40.1-62.4-34.8c-0.2,0-18.5,2.8-58.4,24.1l0.5,0.9
				c39.7-21.2,57.9-23.9,58-23.9C205.1,176.9,233.4,216.1,233.7,216.5z"/>
		</g>
	</g>
</g>
</svg>
