<?xml version="1.0" encoding="utf-8"?>
<!-- Generator: Adobe Illustrator 23.0.1, SVG Export Plug-In . SVG Version: 6.00 Build 0)  -->
<svg version="1.1" id="Layer_1" xmlns="http://www.w3.org/2000/svg" xmlns:xlink="http://www.w3.org/1999/xlink" x="0px" y="0px"
	 viewBox="0 0 433.7 333.8" style="enable-background:new 0 0 433.7 333.8;" xml:space="preserve">
<style type="text/css">
	.st0{fill:#FFFFFF;}
</style>
<g>
	<path class="st0" d="M327.8,201.5c0,4.1,18.9,16.1,55,16.1c35.8,0,55-11.4,55-16.1s-19.3-16.1-55-16.1
		C346.8,185.4,327.8,197.3,327.8,201.5z"/>
	<path class="st0" d="M327.8,225.8v11.8c15.3,3.8,27.7,10.2,33.3,19.1c7.2,1.1,14.4,1.7,21.7,1.7c35.8,0,55-11.5,55-16.1v-16.5
		c-14.3,7.2-34.7,10.9-55,10.9S342.1,233,327.8,225.8z"/>
	<path class="st0" d="M229.9,197.5c1.1-1.4,2-3,2.5-4.7c0.5-1.2,0.8-2.4,0.9-3.7V189c0.2-8-1.3-14-4.6-17.7c-2.2-2.4-5-4.2-8-5.4
		v37.6c1.1-0.3,2.1-0.7,3.1-1.3C226.2,201.1,228.2,199.5,229.9,197.5z"/>
	<path class="st0" d="M431.3,35.2c-1.8-4.9-7.3-7.5-12.3-5.6c-4.9,1.8-7.5,7.3-5.6,12.3c0.1,0.2,0.1,0.3,0.2,0.5
		c2.9,7.3-1.1,15.3-6.3,20c-0.9,0.8-1.9,1.6-2.9,2.2c-1.1-6.7-4.1-13.7-8.9-21.1c-7.7-12-18.5-17.8-29-15.4c-8.6,2-15,9.2-16.3,18.6
		c-1.8,13.7,7.3,27.2,24.2,36.1c0.9,0.5,1.8,0.9,2.7,1.3c-4.6,2.9-9.7,5-15,6.1l-5.8,0.9c-25.9-38.5-69.2-61.7-115.6-61.7
		c0,0-9.7-1.5-34.3-1.5s-39.1,1.5-39.1,1.5c-10.8,0-21.6,1.3-32.1,3.9C115.2-13.1,74.9,2.6,74.9,2.6l14.3,50.8
		c-28.5,19.4-48.9,48.6-57.1,82.1L0.4,152.1c-1.2,15.9,0.6,32,5.1,47.3l28,8.6c9.3,31.8,29.6,59.2,57.2,77.5l2.6,44.1
		c0,0,10.9,9,30.1,0.7l7.5-26.8c11.9,3.3,24.2,5,36.5,5c0,0,16.7,0.3,35.3,0.3c4.6,0,9.2,0,13.6-0.1v-40.9c0-27,50.4-38.2,92.5-33.7
		v-32.8c0-22.6,35.4-34.1,71.6-34.6c-0.3-20.1-5-40-13.7-58.1c4.5-0.9,25-6.1,34.1-22.1c7.2-1.6,13.9-5,19.3-10
		C432.5,65.3,436.9,49.1,431.3,35.2z M255.4,189.8c-0.6,8.5-4.3,16.6-10.8,23.9c-5.6,6.1-13.5,10.1-23.8,11.9v3.8
		c0.1,3.8-1.6,7.4-4.6,9.6c-2.2,1.7-4.9,2.6-7.7,2.6h-0.1c-2.9,0-5.7-1-7.9-2.9c-2.7-2.3-4.2-5.7-4.1-9.3V226
		c-9.9-1-19.4-4.2-27.9-9.4c-10.4-6.7-16.8-16.4-19.2-28.8c-0.8-3.1-0.1-6.4,2-8.8c2.2-2.7,5.6-4,9-3.5c5.9,0.2,10.3,3.9,11,9.6
		c1.2,4.7,4.3,9.3,9.4,13.2c3.8,2.9,9.1,4.8,15.7,5.9v-42.9c-10-1.2-19.5-5.2-27.4-11.6c-8.5-7.4-13.5-17-14.8-28.7
		c-0.6-6.3,0.3-12.7,2.6-18.6c2.3-5.7,5.8-10.8,10.2-15c4.7-4.4,10.2-7.8,16.3-10c4.3-1.6,8.7-2.7,13.2-3.3V70
		c-0.1-3.4,1.3-6.7,3.7-9c5.2-4.5,11.5-4.2,16.3-0.5c2.8,2.3,4.4,5.8,4.4,9.4v5.4c8,1.9,15.4,5.9,21.3,11.7
		c7.6,7.5,11.6,17.5,11.9,29.8c-1.4,7.5-5.2,11.3-10.4,11.9c-6.3,0.8-11.1-3.4-11.8-9.9c-0.2-2.7-0.8-5.4-1.6-7.9
		c-0.8-2.3-2-4.5-3.5-6.3c-1.7-2.1-3.7-3.9-5.8-5.4v43.6c5.4,1.3,10.5,3.4,15.3,6.3c5,3.1,9.4,7.1,12.7,12c2.9,4.5,4.9,9.5,5.9,14.8
		C255.6,180.5,255.8,185.2,255.4,189.8z M383.4,65.8c-11.3-5.9-14.7-12.7-14.2-16.7c0.2-1.3,0.8-2.3,1.5-2.5c0.1,0,0.2,0,0.4,0
		c1.6,0,4.9,1.8,8.4,7.2c2.7,3.9,4.7,8.3,5.9,12.9C384.7,66.5,384,66.2,383.4,65.8L383.4,65.8z"/>
	<path class="st0" d="M181.9,130.9c2.5,2.3,5.4,4.3,8.5,5.8c1.9,0.9,3.9,1.6,5.9,2.1V96.1c-5.5,1.2-9.9,3.5-13.1,6.8
		c-4.4,4.4-6.7,10.4-6.3,16.6c0.2,2.2,0.7,4.4,1.5,6.5C179.3,127.9,180.5,129.5,181.9,130.9z"/>
	<path class="st0" d="M364.5,276.2v21.6c6.1,0.9,12.2,1.3,18.4,1.3c35.8,0,55-11.4,55-16.1v-16.4c-14.3,7.2-34.7,10.9-55,10.9
		C376.7,277.4,370.6,277,364.5,276.2z"/>
	<path class="st0" d="M235.3,292.2v16.4c0,4.7,19.3,16.1,55,16.1s55-11.5,55-16.1v-16.4c-14.3,7.2-34.7,10.9-55,10.9
		S249.6,299.4,235.3,292.2z"/>
	<path class="st0" d="M290.4,251.8c-35.8,0-55,11.5-55,16.1s19.3,16.1,55,16.1s55-11.5,55-16.1S326.1,251.8,290.4,251.8z"/>
	<path class="st0" d="M364.5,317v21.6c6.1,0.9,12.2,1.3,18.4,1.3c35.8,0,55.1-11.4,55.1-16.1v-16.5c-14.3,7.2-34.7,10.9-55,10.9
		C376.7,318.2,370.6,317.8,364.5,317z"/>
	<path class="st0" d="M235.3,333v16.4c0,4.7,19.3,16.1,55,16.1s55-11.5,55-16.1V333c-14.3,7.2-34.7,10.9-55,10.9
		S249.6,340.2,235.3,333z"/>
</g>
</svg>
