<?xml version="1.0" encoding="utf-8"?>
<!-- Generator: Adobe Illustrator 23.0.1, SVG Export Plug-In . SVG Version: 6.00 Build 0)  -->
<svg version="1.1" id="Layer_1" xmlns="http://www.w3.org/2000/svg" xmlns:xlink="http://www.w3.org/1999/xlink" x="0px" y="0px"
	 viewBox="0 0 460 460" style="enable-background:new 0 0 460 460;" xml:space="preserve">
<style type="text/css">
	.st0{fill:#1AB26B;}
	.st1{fill:#FFFFFF;}
</style>
<g id="_x33_15-spotify">
	<g>
		<path class="st0" d="M230,0C103,0,0,103,0,230c0,127,103,230,230,230c127,0,230-103,230-230C460,103,357,0,230,0z"/>
		<path class="st1" d="M323.4,338.4c-3.9,0-6.3-1.2-9.9-3.3c-57.9-34.9-125.2-36.4-191.7-22.7c-3.6,0.9-8.3,2.4-11,2.4
			c-9,0-14.7-7.1-14.7-14.7c0-9.6,5.7-14.1,12.6-15.6c76-16.8,153.6-15.3,219.8,24.3c5.7,3.6,9,6.9,9,15.3
			C337.5,332.6,330.9,338.4,323.4,338.4L323.4,338.4z"/>
		<path class="st1" d="M348.3,277.6c-4.8,0-8.1-2.1-11.4-3.9c-58-34.3-144.4-48.1-221.3-27.3c-4.5,1.2-6.9,2.4-11,2.4
			c-9.9,0-18-8.1-18-18c0-9.9,4.8-16.5,14.4-19.2c25.8-7.2,52.1-12.6,90.7-12.6c60.2,0,118.3,14.9,164.2,42.2
			c7.5,4.5,10.5,10.2,10.5,18.3C366.2,269.5,358.4,277.6,348.3,277.6z"/>
		<path class="st1" d="M377.1,206.9c-4.8,0-7.8-1.2-12-3.6c-66-39.4-184.1-48.9-260.5-27.5c-3.3,0.9-7.5,2.4-12,2.4
			c-12.2,0-21.6-9.6-21.6-21.9c0-12.6,7.8-19.8,16.1-22.2c32.6-9.6,69.2-14.1,109-14.1c67.7,0,138.6,14.1,190.5,44.3
			c7.2,4.2,12,9.9,12,21C398.6,197.9,388.4,206.9,377.1,206.9L377.1,206.9z"/>
	</g>
</g>
</svg>
