<?xml version="1.0" encoding="utf-8"?>
<!-- Generator: Adobe Illustrator 23.0.1, SVG Export Plug-In . SVG Version: 6.00 Build 0)  -->
<svg version="1.1" xmlns="http://www.w3.org/2000/svg" xmlns:xlink="http://www.w3.org/1999/xlink" x="0px" y="0px"
	 viewBox="0 0 406.4 398.8" style="enable-background:new 0 0 406.4 398.8;" xml:space="preserve">
<style type="text/css">
	.st0{opacity:0.7;fill:#FFFFFF;}
	.st1{fill:#92E3A9;}
	.st2{fill:#263238;}
	.st3{fill:none;stroke:#263238;stroke-linecap:round;stroke-linejoin:round;stroke-miterlimit:10;}
	.st4{fill:#757575;stroke:#263238;stroke-linecap:round;stroke-linejoin:round;stroke-miterlimit:10;}
	.st5{fill:none;stroke:#263238;stroke-linecap:round;stroke-linejoin:round;}
	.st6{fill:none;stroke:#263238;stroke-linecap:round;stroke-linejoin:round;stroke-dasharray:2.9483,2.9483;}
	.st7{opacity:0.4;clip-path:url(#XMLID_2_);fill:#92E3A9;}
	.st8{opacity:0.2;}
	.st9{fill:#92E3A9;stroke:#263238;stroke-linecap:round;stroke-linejoin:round;stroke-miterlimit:10;}
	.st10{fill:#FFFFFF;stroke:#263238;stroke-linecap:round;stroke-linejoin:round;stroke-miterlimit:10;}
	.st11{fill:none;stroke:#FFFFFF;stroke-linecap:round;stroke-linejoin:round;stroke-miterlimit:10;}
	.st12{fill:#263238;stroke:#263238;stroke-linecap:round;stroke-linejoin:round;stroke-miterlimit:10;}
	.st13{opacity:0.4;clip-path:url(#XMLID_5_);fill:#92E3A9;}
	.st14{fill:#FFFFFF;}
</style>
<g id="Background_Simple">
	<g>
		<path class="st0" d="M10.5,116c0,0-27.9,72,11.3,144.5C61,333,141.7,371.3,206.3,404c64.6,32.7,131.7,16.8,163.5-36.8
			c31.9-53.6-11.8-91.9-11.9-168.4c-0.1-76.5,11.4-96.7-30-161.4c-41.4-64.6-143.1-78.9-219.9-31C31.2,54.3,10.5,116,10.5,116z"/>
	</g>
</g>
<g id="Discount">
</g>
<g id="Gift">
</g>
<g id="Update">
</g>
<g id="Heart">
</g>
<g id="Character">
	<g>
		<g>
			<path class="st1" d="M16.5,137.6c35.4-35.4,65.4-5.7,78-53.2C123.1-23.1,241.5-22,257.1,54.4c28,137.6,150.2,50.2,149.3,148.8
				c-1,105.3-78.4,187.2-217.2,195.4C64.7,406-42.1,196.2,16.5,137.6z"/>
			<path class="st0" d="M16.5,137.6c35.4-35.4,65.4-5.7,78-53.2C123.1-23.1,241.5-22,257.1,54.4c28,137.6,150.2,50.2,149.3,148.8
				c-1,105.3-78.4,187.2-217.2,195.4C64.7,406-42.1,196.2,16.5,137.6z"/>
		</g>
		<g>
			<g>
				<g>
					<path class="st2" d="M104.4,77.2c-0.2-1.9,0.6-3.1,2.5-3.3c1.8-0.2,2.9,0.7,3.2,2.6l0.7,6.1c0.2,1.9-0.6,3.1-2.5,3.3
						c-1.8,0.2-2.9-0.7-3.2-2.6L104.4,77.2z M107,83.3c0.1,0.8,0.5,1.1,1.1,1.1c0.6-0.1,0.9-0.5,0.8-1.3l-0.7-6.4
						c-0.1-0.8-0.5-1.1-1.1-1.1c-0.6,0.1-0.9,0.5-0.8,1.3L107,83.3z M114.2,73.2l1.7-0.2l-5.1,19.4l-1.7,0.2L114.2,73.2z M114.4,83
						c-0.2-1.9,0.6-3.1,2.5-3.3c1.8-0.2,2.9,0.7,3.2,2.6l0.7,6.1c0.2,1.9-0.6,3.1-2.5,3.3c-1.8,0.2-2.9-0.7-3.2-2.6L114.4,83z
						 M117,89c0.1,0.8,0.5,1.1,1.1,1.1c0.6-0.1,0.9-0.5,0.8-1.3l-0.7-6.4c-0.1-0.8-0.5-1.1-1.1-1.1c-0.6,0.1-0.9,0.5-0.8,1.3L117,89
						z"/>
				</g>
				<path class="st3" d="M125.1,95.9l-21.6,2.5c-1,0.1-2-0.6-2.1-1.6l-2.6-22.4c-0.1-0.8,0.2-1.7,0.8-2.3l9-8.9
					c0.9-0.9,2.3-1,3.4-0.4l10.9,6.6c0.7,0.4,1.2,1.2,1.3,2l2.6,22.4C126.8,94.8,126.1,95.7,125.1,95.9z"/>
				<path class="st3" d="M112,65.7c0.1,0.8-0.5,1.5-1.2,1.5c-0.8,0.1-1.5-0.5-1.5-1.2c-0.1-0.8,0.5-1.5,1.2-1.5
					C111.2,64.4,111.9,64.9,112,65.7z"/>
				<path class="st3" d="M110.6,50c0,0,4.2,16.3,0,15.8"/>
				<path class="st3" d="M109.5,62.6c0.8-4.5,5-12.2,5-12.2"/>
				<path class="st3" d="M110.6,65.9c-0.6-0.1-0.9-0.4-1.1-0.9"/>
			</g>
			<g>
				<path class="st3" d="M129.5,56.1c3.7,3,6.7,7,8.4,11.7"/>
				<path class="st3" d="M85.6,70.5c2.7-10.4,11.3-18.6,22.6-20.3c6.8-1,13.3,0.6,18.7,4"/>
				<path class="st3" d="M94.2,98.1c-4.8-4.2-8.1-10-9.1-16.7"/>
				<path class="st3" d="M111.1,104.9c-5.1-0.2-10-1.8-14.1-4.5"/>
				<path class="st3" d="M139.4,73.5c2.2,15-8.2,28.9-23.2,31.1"/>
			</g>
		</g>
		<g>
			<g>
				<path class="st3" d="M71.6,193.8l-31.3-6c-0.9-0.2-1.5-1-1.3-1.9l4-20.6l34.5,6.7l-4,20.6C73.4,193.4,72.5,194,71.6,193.8z"/>
				<path class="st3" d="M45.1,158.2l33,6.4c0.9,0.2,1.5,1,1.3,1.9l-1.1,5.4l-36.3-7l1-5.4C43.4,158.6,44.2,158.1,45.1,158.2z"/>
				
					<rect x="56.3" y="161.1" transform="matrix(0.9819 0.1893 -0.1893 0.9819 34.3957 -7.9511)" class="st3" width="5" height="29.9"/>
				<path class="st3" d="M61.7,161.4c0,0,8.6-6.2,12.5-4.4c4,1.9,2,7.2,0,6.8"/>
				<path class="st3" d="M65,162.1c0,0,7-3.5,8-1.9c1,1.6-2,3.1-4.3,2.6"/>
				<path class="st3" d="M61.9,161c0,0,3.6-6.6,3.1-8.7l2.4,0c0,0,0.8,2.5-2,6.8"/>
				<path class="st3" d="M61.7,161.4c0,0-5.6-9-10-8.7c-4.4,0.3-4.5,5.9-2.5,6.3"/>
				<path class="st3" d="M58.3,160.8c0,0-5.2-5.8-6.7-4.7c-1.5,1.1,0.7,3.6,3,4"/>
				<path class="st3" d="M61.6,160.9c0,0-0.9-7.4,0.3-9.2l-2.2-0.9c0,0-1.7,2-0.6,7"/>
			</g>
			<g>
				<path class="st3" d="M87.1,150.9c3.8,4.8,6.3,10.6,7.2,16.9"/>
				<path class="st3" d="M28.5,156.5c6.3-12.1,19.4-20,33.9-18.8c8.7,0.7,16.4,4.5,22.1,10.2"/>
				<path class="st3" d="M31.3,193.3c-4.8-6.5-7.3-14.7-6.6-23.4"/>
				<path class="st3" d="M50.5,206.5c-6.3-1.7-11.9-5.1-16.2-9.6"/>
				<path class="st3" d="M94.6,175.3c-1.5,19.3-18.4,33.7-37.7,32.2"/>
			</g>
		</g>
		<g>
			<g>
				<g>
					<path class="st3" d="M233.3,82l-2.9-1.5c0.5-1.3,0.5-2.9,0.4-4c1,0.4,1.9,0.9,2.8,1.3C233.6,79,233.5,80.4,233.3,82z"/>
					<path class="st3" d="M237.6,79.7c1,0.5,2,0.8,3,1c0.7,3.9,1,10.3-2.4,16.9c-0.8,1.5-8.7-2.6-8-4.1c1.8-3.6,2.7-7.9,3.1-11.6
						c0.2-1.5,0.3-3,0.3-4.2C235.3,78.6,236.7,79.3,237.6,79.7z"/>
					<path class="st3" d="M247.1,61.2c2.6,1.3,4.4,3.5,5.2,6.1c0.8,2.5,0.7,5.4-0.6,7.9c-1.3,2.6-3.5,4.4-6.1,5.2
						c-1.6,0.5-3.3,0.7-5,0.4c-1-0.2-2-0.5-3-1c-0.8-0.4-2.3-1.1-4-1.9c-0.9-0.4-1.9-0.9-2.8-1.3c-2.3-1.1-4.5-2-5.7-2.4l10.1-19.7
						C237.3,55.9,244.7,60,247.1,61.2z"/>
					<path class="st3" d="M225.4,45.1c2.8,3.5,6.1,6.7,9.8,9.3L225.1,74c-4.3-1.4-8.7-2.3-13.2-2.5l-3.9-0.2l15-29.3L225.4,45.1z"/>
					<path class="st3" d="M203.4,72.2L221,37.9c0.3-0.5,0.9-0.8,1.5-0.5l1.3,0.7c0.5,0.3,0.8,0.9,0.5,1.5l-1.3,2.5l-15,29.3
						l-1.3,2.5c-0.3,0.5-0.9,0.8-1.5,0.5l-1.3-0.7C203.3,73.4,203.1,72.7,203.4,72.2z"/>
				</g>
				<line class="st4" x1="203.9" y1="50.8" x2="197.1" y2="47.3"/>
				<line class="st4" x1="211.8" y1="39.9" x2="207.6" y2="32.5"/>
				<line class="st4" x1="199.8" y1="63.6" x2="191.2" y2="64.5"/>
			</g>
			<g>
				<path class="st3" d="M256.3,31.3c-5.8-5.4-13-9.2-21-11"/>
				<path class="st3" d="M243.2,106.3c16.3-6.9,27.7-23,27.7-41.7c0-11.3-4.1-21.6-11-29.5"/>
				<path class="st3" d="M196.1,98.9c7.9,6.8,18.2,10.9,29.5,10.9"/>
				<path class="st3" d="M181.1,72.8c1.5,8.3,5.4,15.8,10.8,21.9"/>
				<path class="st3" d="M225.6,19.2c-25,0-45.3,20.3-45.3,45.3"/>
			</g>
		</g>
		<g>
			<path class="st3" d="M145.4,137.5c-3.8-3.4-7.7-1.9-9.8-0.7c-0.4-2.3-1.8-6.3-6.9-7c-5.5-0.7-10,4.6-8.5,12.1
				c1.1,5.4,4.5,10.3,6.3,12.6c0.2,0.3,0.4,0.5,0.6,0.7c0.3,0,0.6,0,0.9,0c3-0.1,8.9-0.7,13.7-3.4
				C148.4,148,149.5,141.1,145.4,137.5z"/>
			<g>
				<g>
					<path class="st5" d="M124,158.7c0,0-0.3,0.5-0.6,1.4"/>
					<path class="st6" d="M122.4,162.8c-1.5,4.9-2.3,13.1,5.5,18.1c19.7,12.6,26.4-17.1,11.3-14.4c-10.3,1.8,0.5,29.1,16.7,23.8"/>
					<path class="st5" d="M157.3,189.8c0.4-0.2,0.9-0.4,1.3-0.7"/>
				</g>
			</g>
		</g>
		<g>
			<g>
				<g>
					<defs>
						<path id="XMLID_4_" d="M133.1,371c0,0-11.1,7.6-15.6,7.1c-0.6-0.1-1-0.2-1.3-0.6c-2.9-3-5.3-8.3-5.3-8.3s1.4-1.9,5.7,3.2
							l2.7-2.5l-5.6-5.7c0,0,3.2-2.5,8.6,0.7c-0.2-0.4-3.7-8-1-18.3L108,334l11.6-10.1l0.9-0.8c0,0,0.7,0.7,1.9,1.8
							c1.1,1.1,2.7,2.5,4.4,4c4.1,3.6,9.1,7.5,11.2,7.5C142.1,336.4,133.1,371,133.1,371z"/>
					</defs>
					<use xlink:href="#XMLID_4_"  style="overflow:visible;fill:#FFFFFF;"/>
					<clipPath id="XMLID_2_">
						<use xlink:href="#XMLID_4_"  style="overflow:visible;"/>
					</clipPath>
					<path class="st7" d="M124.4,366c0,0-6.3,6.5-7,12c-0.6-0.1-1-0.2-1.3-0.6c-2.9-3-5.3-8.3-5.3-8.3s1.4-1.9,5.7,3.2l2.7-2.5
						l-5.6-5.7c0,0,3.2-2.5,8.6,0.7c-0.2-0.4-3.7-8-1-18.3L108,334l11.6-10.1l2.8,1.1c1.1,1.1,2.7,2.5,4.4,4
						c-2.5,3.6-7.7,11.1-7.7,11.1l4.6,6.2C123.7,346.2,121,361.8,124.4,366z"/>
					
						<use xlink:href="#XMLID_4_"  style="overflow:visible;fill:none;stroke:#263238;stroke-linecap:round;stroke-linejoin:round;stroke-miterlimit:10;"/>
				</g>
				<path class="st3" d="M119.3,369.9c0,0,1-3,2.9-5"/>
			</g>
			<path class="st1" d="M327,282.8c-1.6,2.4-3.7,4.7-6.3,6.8c0,0,0,0,0,0c-20.5,16.9-67.7,25.3-67.7,25.3s-1.6,2.4-4,5.7
				c-4.4,6.1-11.5,15.4-17.3,20l0,0c-2.5,2-4.7,3.1-6.4,2.8l8.9,32.7l4,14.2c0,0-40.7,17.8-110.3-2.6c0,0-0.8-9.1-0.2-11
				c0-0.1,0.1-0.2,0.1-0.3c0.6-1.6,2.7-3.4,2.7-3.4s-0.4-5.8-0.6-11.8c-0.2-4.6-0.2-9.3,0.1-11.4c0.5-3,2.7-10.2,3.8-13.8
				c0.4-1.3,0.6-2.1,0.6-2.1l-3.5-32.4l-1-9.3c0,0,0-0.2-0.1-0.5c0-0.1,0-0.1,0-0.2l-0.5-5l-17.9,5.5c0,0,1,2.1,2.2,5
				c2.4,5.4,5.8,13.6,6.6,16.8c0.1,0.3,0.1,0.5,0.2,0.8c1.7,4.7,8,9,8,9l-17,19.8l-5-3.5c0,0-0.7,0.6-2,1.3
				c-3.3,1.8-10.2,4.4-17.8,0.4c-2.8-1.5-5.6-3.8-8.4-7.4c-13.4-17.3-19.1-31.4-17.2-48c1.9-16.6,76.3-67.6,91.1-67.1l22,4.9
				c0.5-0.4,1.8-1.4,2.7-1.4c4,0.2,4.1,4.8,4.1,4.8l49.3,8c0,0,5.1-2.6,6-2.5c2.2,0.1,3.1,2,3.1,2s12.8-7.6,16.9-5.9
				C269.8,235,336.9,267.7,327,282.8z"/>
			<g>
				<path class="st8" d="M155.9,363.8c0,0-7.6,9.4-21.3,11.6c-2.6,0.4-4.9,0.8-6.9,1.2c0.6-1.6,2.7-3.4,2.7-3.4s-0.4-5.8-0.6-11.8
					C135.6,365.1,145.7,369.5,155.9,363.8z"/>
				<path class="st8" d="M133.8,336.2c0.4-1.3,0.6-2.1,0.6-2.1l-3.5-32.4c5.2,7.4,23.6,32.7,36.4,35.5
					C180.6,340,145,345,133.8,336.2z"/>
				<path class="st8" d="M234.1,376.2c-13.9-1.6-33.6-5.1-35.5-12.4c-3.1-11.4,11.8-18.2,33-23.2c-2.5,2-4.7,3.1-6.4,2.8
					L234.1,376.2z"/>
				<path class="st8" d="M320.7,289.6c-20.5,16.9-67.7,25.3-67.7,25.3s-1.6,2.4-4,5.7c-4-9.3-9.7-28.6-3-52.3
					c0,0,3.6,19.7,18.7,24.4c0,0-11.6-8.6-7.5-29.3c0,0,3.9,24.4,29.6,31.1C299.2,297.8,311.4,294.2,320.7,289.6z"/>
				<path class="st8" d="M129.9,291.8l-0.6-5.2l-17.9,5.5c0,0,1,2.1,2.2,5c-6.8-0.7-19.8,5.7-22.1-1.3c-2.7-8.4,14.1-5.5,14.1-5.5
					l15.9-9.2c-3-12.8,4.6-22.5,4.6-22.5l1.5,8.9c0.7-17,7.3-26.3,7.3-26.3C129.4,254.7,129.5,287.8,129.9,291.8z"/>
				<path class="st8" d="M128.4,323.7l-17,19.8l-5-3.5c0,0-0.7,0.6-2,1.3c-3.3,1.8-10.2,4.4-17.8,0.4c5.5-7.6,16.8-18.8,30.3-23.1
					c0,0-5.6,8.1-9,15.4l3.5,3.4C111.5,337.4,120.2,327.5,128.4,323.7z"/>
				<path class="st8" d="M169.6,236.5c0,1.7-1.1,21.6,13.3,26.8c14.4,5.2,27.2-3.6,27.2-3.6s-22.1,21.3-35.6,9.9
					C161.1,258.1,169.6,236.5,169.6,236.5z"/>
			</g>
			<path class="st3" d="M127.8,387.9c0,0-0.8-9.1-0.2-11c0.5-1.6,2.8-3.7,2.8-3.7s-1.2-18.4-0.4-23.2c0.7-4.1,4.4-15.9,4.4-15.9
				l-5.1-47.5l-17.9,5.5c0,0,7.6,16.8,8.8,21.9c1.2,5,8.2,9.8,8.2,9.8l-17,19.8l-5-3.5c0,0-14.8,11.6-28.2-5.7
				c-13.4-17.3-19.1-31.4-17.2-48c1.9-16.6,76.4-67.6,91.1-67.1l22,4.9c0.5-0.4,1.8-1.4,2.7-1.4c4,0.2,4.1,4.8,4.1,4.8l49.2,8
				c0,0,5.1-2.6,6-2.5c2.2,0.1,3.1,2,3.1,2s12.8-7.6,16.9-5.9c13.5,5.8,80.7,38.5,70.7,53.6c-14.2,21.5-74,32.1-74,32.1
				s-19.9,30-27.7,28.6l12.8,46.9"/>
			<path class="st9" d="M274.9,286.1c22.6,14.9,40.8,12.2,55.1-7c0,0,11.9-15.3,11-31.8s-4.8-70.4-56.2-56.6
				c-8.5,2.3-28.2,28.7-29.9,36c-0.8,3.3-8.7,20.2-16.4,37.8"/>
			<path class="st2" d="M213.8,127.9c0,0,14.4-2.2,24.4,6.8c12.6,11.3,26.8,41.8,6.6,92.4c0,0-29.9-19.8-80.9-6.6
				c0,0,4.4-11.9-3.3-49.2C157.1,154.4,165.9,115.5,213.8,127.9z"/>
			<g>
				<path class="st10" d="M191.9,254.8c21.3,3.5,44-20.1,44-20.1s-11.6-1.4-12.6-6.9c-3.3-17.2,10-38.4,10-38.4s-51.7,1.4-42.7,13.1
					c1.9,2.5,3.2,4.8,4.1,7c3.1,7.7,1,13.5-0.7,14.9c-0.1,0.1-0.3,0.2-0.4,0.3c-3.1,1.4-16-0.7-16-0.7S172.5,251.7,191.9,254.8z"/>
				<path class="st3" d="M228.6,241.2c0,0-9.8,3.9-24.2,2.8l-6.5,3.2"/>
				<path class="st3" d="M191.4,246.7l-0.5-4.3c0,0-10.6-3.3-13.9-9.6"/>
				<path class="st2" d="M194,224.6c15.8,4.1,23.3-16.2,23.3-16.2s-12.7-3.8-22.6,1.2C197.9,217.4,195.7,223.2,194,224.6z"/>
			</g>
			<g>
				<path class="st10" d="M234.2,178.8c3.9-21.6-0.4-47.6-33.4-45.5c-23.5,1.5-23.3,27.3-21.8,35c2.6,13-1.1,18.1,2.9,28.9
					c2.9,7.8,9.6,16.6,17.6,19.8c4.9,2,24.6-11.8,26.1-18.2"/>
				<path class="st3" d="M192.8,172.4c-0.2,2.4-0.5,8.4-5.6,12.9c-3.3,2.9,4.3,5.8,4.3,5.8"/>
				<path class="st3" d="M187.4,163.8c0,0-7.3-3.5-12.2,2.3"/>
				<path class="st3" d="M199.6,163.4c0,0,7-2.5,15.5,0.6"/>
				<path class="st2" d="M207.1,173.6c0.2,2.1,1.6,3.6,3.1,3.5c1.5-0.2,2.5-2,2.3-4.1c-0.2-2.1-1.6-3.6-3.1-3.5
					C207.9,169.7,206.9,171.5,207.1,173.6z"/>
				<path class="st3" d="M191.9,197.9c9.1-1.1,16.3-5.9,16.3-5.9s0.7,9.1-6.9,11c-5.8,1.4-8.1-5.2-8.1-5.2"/>
				<path class="st2" d="M213.3,141.6c0,0-2.1,25.6,20.6,35l10.6-24.6l-16-17.8l-24.2-7c-36.1,2.3-51.7,24.7-31.6,84.5
					C172.6,211.6,167,140.4,213.3,141.6z"/>
				<path class="st10" d="M228.9,177.6c-0.3-2.9,7-10.2,9.4-5.5c4.2,8,1.1,15-3.2,17.8c-1.9,1.2-4.4,3.5-6.2,1.4"/>
				<path class="st2" d="M185.1,174.5c0.2,2.1,1.6,3.6,3.1,3.5c1.5-0.2,2.5-2,2.3-4.1c-0.2-2.1-1.6-3.6-3.1-3.5
					C185.9,170.6,184.9,172.5,185.1,174.5z"/>
				<g class="st8">
					<path class="st11" d="M169.4,170.3c-0.3,1.7-0.5,3.5-0.6,5.3"/>
					<path class="st11" d="M209.5,136.9c-18.3-0.5-35.3,11.2-39.3,29.5"/>
					<path class="st11" d="M206.2,131.7c0,0-26.4-6.2-36.3,11.3"/>
					<path class="st11" d="M227.7,162.2c1.6,2.2,3.5,4.3,5.7,6"/>
					<path class="st11" d="M217.2,135.1c1.4,8.2,4.1,16.6,8.4,23.8"/>
					<path class="st11" d="M243.7,214.5c-0.5,2.1-1,4.2-1.6,6.2"/>
					<path class="st11" d="M242.2,179.6c4.3,9.5,4,21.3,2.2,31.3"/>
					<path class="st11" d="M239,196.2c0,0,1.3,10.6-7.4,19.6"/>
					<path class="st11" d="M226.9,138.2c4.5,6.1,7.8,12.6,13,18.1c5.5,5.8,11,12.5,12,20.7"/>
					<path class="st11" d="M220.5,131.9c1.3,0.8,2.5,1.8,3.5,3"/>
				</g>
			</g>
			<path class="st12" d="M310.8,272.7c-0.5,0.1-1.1,0.2-1.6,0.3c-14.2,2-30-9.7-35.4-23.8c-4.2-11.1-0.5-23.8,1.5-29.2
				c0.6-1.7,1.1-2.7,1.1-2.7c8.5-12.2,58.2,11.7,58.8,24.8C335.7,255.2,325.3,269.5,310.8,272.7z"/>
			<g>
				<defs>
					<path id="XMLID_3_" d="M326.3,243.9c0,0-2.8,20.9-17.1,29.1c-14.2,2-30-9.7-35.4-23.8c-4.2-11.1-0.5-23.8,1.5-29.2c0,0,0,0,0,0
						C292,210.4,326.3,243.9,326.3,243.9z"/>
				</defs>
				<use xlink:href="#XMLID_3_"  style="overflow:visible;fill:#FFFFFF;"/>
				<clipPath id="XMLID_5_">
					<use xlink:href="#XMLID_3_"  style="overflow:visible;"/>
				</clipPath>
				<path class="st13" d="M326.3,243.9c0,0-2.8,20.9-17.1,29.1c-14.2,2-30-9.7-35.4-23.8c-4.2-11.1-0.5-23.8,1.5-29.2c0,0,0,0,0,0
					C292,210.4,326.3,243.9,326.3,243.9z"/>
				
					<use xlink:href="#XMLID_3_"  style="overflow:visible;fill:none;stroke:#263238;stroke-linecap:round;stroke-linejoin:round;stroke-miterlimit:10;"/>
			</g>
			<path class="st3" d="M267.8,254.9c0,0,16.1,23.1,34.9,25.1c18.8,1.9,30.9-13.9,31.6-25.9"/>
			<path class="st10" d="M258.7,150.4c1.4-4,11.6-2.6,14.8,9.7c3.2,12.4,15.9,42.4,15.9,42.4s50.5-74.4,59.6-77.2
				c9.1-2.9,5.5,10-6.6,27.9c0,0,11.3-2,14.3,0c3,2,1.5,14,3.1,18.2c2.7,7.1-3.2,8.5-3.2,8.5s4.6,0,7.9,3c3.2,3,1.6,15.6,2.5,19.2
				c0.9,3.6-5.3,6.6-5.3,6.6s14.9,8.1,11.5,10.2c-5.7,3.4-8.9-0.1-8.9-0.1s-22.9,28.8-40.2,35.2s-50.9-19-54.5-32.9
				c-3.6-13.9,0.7-13-2-36.1C265,161.9,258.7,150.4,258.7,150.4z"/>
			<g>
				<path class="st10" d="M332.4,104.8l-66.6,17.3c-2.4,0.6-3.8,3-3.2,5.4l31.5,120.7c0.6,2.4,3,3.8,5.4,3.2l66.6-17.3
					c2.4-0.6,3.8-3,3.2-5.4l-31.5-120.7C337.2,105.6,334.8,104.2,332.4,104.8z"/>
				<g>
					<path class="st9" d="M294.3,118.6c0.2,0.6-0.2,1.2-0.8,1.3c-0.6,0.2-1.2-0.2-1.3-0.8c-0.2-0.6,0.2-1.2,0.8-1.3
						C293.5,117.7,294.1,118,294.3,118.6z"/>
					<path class="st9" d="M308,115c0.1,0.4-0.1,0.7-0.5,0.8c-0.4,0.1-0.7-0.1-0.8-0.5c-0.1-0.4,0.1-0.7,0.5-0.8
						C307.5,114.5,307.9,114.7,308,115z"/>
					<path class="st9" d="M304.4,116.4l-8,2.1c-0.2,0-0.3-0.1-0.4-0.2l0-0.1c0-0.2,0.1-0.3,0.2-0.4l8-2.1c0.2,0,0.3,0.1,0.4,0.2
						l0,0.1C304.7,116.2,304.6,116.3,304.4,116.4z"/>
				</g>
				<path class="st9" d="M335.8,109.1L367,228.9c0.4,1.4-0.5,2.8-1.9,3.2l-65.7,17.1c-1.4,0.4-2.8-0.5-3.2-1.9L265,127.6
					c-0.4-1.4,0.5-2.8,1.9-3.2l13.5-3.5c0.9-0.2,1.8,0.1,2.4,0.9l1,1.4c0.5,0.8,1.5,1.1,2.4,0.9l29.6-7.7c0.9-0.2,1.5-1,1.6-1.9
					l0.2-1.7c0.1-0.9,0.7-1.7,1.6-1.9l13.5-3.5C334,106.9,335.5,107.8,335.8,109.1z"/>
				<g>
					
						<ellipse transform="matrix(0.3983 -0.9172 0.9172 0.3983 36.4822 386.2494)" class="st10" cx="312.7" cy="165.3" rx="27.8" ry="27.8"/>
					<g>
						<path class="st9" d="M301.2,181.2c0.5,1.2,1.8,1.7,3,1.4l9.1-2.6c0,0.2,0.1,0.4,0.1,0.6c0.6,2,2.7,3.2,4.7,2.6
							c2-0.6,3.2-2.7,2.6-4.7c-0.1-0.2-0.1-0.4-0.2-0.6l9.1-2.6c1.2-0.3,2-1.5,1.8-2.8c-0.3-1.4-1.7-2.2-3-1.9l-0.8-0.5
							c-1.7-1-2.9-2.6-3.4-4.4l-1.7-6c-1.5-5.2-6.6-8.3-11.8-7.6c0.7-0.7,1-1.8,0.7-2.8c-0.4-1.5-2-2.4-3.6-2c-1.5,0.4-2.4,2-2,3.6
							c0.3,1,1.1,1.7,2.1,2c-4.8,2.1-7.4,7.5-5.9,12.7l1.8,6.1c0.6,2.1,0.3,4.5-0.9,6.3l0,0C301.4,178.4,300.6,179.9,301.2,181.2z
							 M310.2,149.7c0.3,0.9-0.3,1.8-1.2,2.1c-0.9,0.3-1.8-0.3-2.1-1.2c-0.3-0.9,0.3-1.8,1.2-2.1C309,148.3,309.9,148.8,310.2,149.7
							z"/>
						<line class="st9" x1="318.8" y1="178.1" x2="314.8" y2="179.2"/>
						<line class="st9" x1="324.7" y1="171.6" x2="306.3" y2="177"/>
					</g>
				</g>
				<path class="st2" d="M344,208.9l-37.5,9.8c-4.5,1.2-9.1-1.5-10.3-6l0,0c-1.2-4.5,1.5-9.1,6-10.3l37.5-9.8
					c4.5-1.2,9.1,1.5,10.3,6l0,0C351.2,203.1,348.5,207.7,344,208.9z"/>
				<g>
					<path class="st14" d="M302.4,207c0.2-0.4,0.6-0.7,1.2-0.9c0.6-0.2,1.1-0.1,1.5,0.2c0.4,0.3,0.7,0.7,0.8,1.3l0.1,0.2l-1.2,0.3
						l-0.1-0.3c-0.1-0.3-0.2-0.4-0.3-0.5c-0.1-0.1-0.3-0.1-0.5-0.1c-0.2,0.1-0.3,0.2-0.4,0.3c-0.1,0.1-0.1,0.4,0,0.6
						c0.1,0.3,0.2,0.6,0.5,0.8c0.2,0.2,0.6,0.4,1,0.6c0.4,0.2,0.7,0.4,0.9,0.5c0.2,0.2,0.4,0.4,0.6,0.6c0.2,0.3,0.3,0.6,0.4,0.9
						c0.2,0.6,0.1,1.1-0.1,1.6c-0.2,0.4-0.6,0.7-1.2,0.9c-0.6,0.2-1.1,0.1-1.5-0.2c-0.4-0.3-0.7-0.7-0.8-1.3l-0.1-0.5l1.2-0.3
						l0.1,0.6c0.1,0.5,0.4,0.7,0.8,0.6c0.4-0.1,0.6-0.4,0.4-0.9c-0.1-0.3-0.2-0.6-0.5-0.8c-0.2-0.2-0.6-0.4-1-0.6
						c-0.4-0.2-0.7-0.4-0.9-0.5c-0.2-0.2-0.4-0.4-0.6-0.6c-0.2-0.3-0.3-0.6-0.4-0.9C302.2,207.9,302.2,207.4,302.4,207z"/>
					<path class="st14" d="M308.9,211.2c0.1,0.5,0.4,0.7,0.8,0.6c0.4-0.1,0.6-0.4,0.4-0.9l-1.6-6l1.2-0.3l1.5,5.9
						c0.2,0.6,0.1,1.1-0.1,1.6c-0.2,0.4-0.6,0.7-1.2,0.9c-0.6,0.2-1.1,0.1-1.5-0.2c-0.4-0.3-0.7-0.7-0.8-1.3l-1.5-5.9l1.2-0.3
						L308.9,211.2z"/>
					<path class="st14" d="M313.9,204c0.4,0.2,0.6,0.6,0.8,1.2l0.1,0.3c0.1,0.4,0.1,0.7,0.1,1c-0.1,0.3-0.2,0.5-0.4,0.7
						c0.7,0.1,1.1,0.6,1.3,1.4l0.2,0.6c0.2,0.6,0.1,1.1-0.1,1.5c-0.2,0.4-0.6,0.7-1.3,0.8l-1.9,0.5l-2-7.7l1.8-0.5
						C313,203.8,313.5,203.8,313.9,204z M312.6,207.2l0.5-0.1c0.2-0.1,0.4-0.2,0.5-0.3c0.1-0.2,0.1-0.4,0-0.7l-0.1-0.4
						c-0.1-0.3-0.2-0.5-0.3-0.6c-0.1-0.1-0.3-0.1-0.5-0.1l-0.6,0.2L312.6,207.2z M313.5,210.7l0.7-0.2c0.2-0.1,0.4-0.2,0.4-0.3
						c0.1-0.1,0.1-0.4,0-0.6l-0.2-0.7c-0.1-0.4-0.2-0.6-0.4-0.7c-0.2-0.1-0.4-0.1-0.7,0l-0.5,0.1L313.5,210.7z"/>
					<path class="st14" d="M315.5,203.6c0.2-0.4,0.6-0.7,1.2-0.9c0.6-0.2,1.1-0.1,1.5,0.2c0.4,0.3,0.7,0.7,0.8,1.3l0.1,0.2l-1.2,0.3
						l-0.1-0.3c-0.1-0.3-0.2-0.4-0.3-0.5c-0.1-0.1-0.3-0.1-0.5-0.1c-0.2,0.1-0.3,0.2-0.4,0.3c-0.1,0.1-0.1,0.4,0,0.6
						c0.1,0.3,0.2,0.6,0.5,0.8c0.2,0.2,0.6,0.4,1,0.6c0.4,0.2,0.6,0.4,0.9,0.5c0.2,0.2,0.4,0.4,0.6,0.6c0.2,0.3,0.3,0.6,0.4,0.9
						c0.2,0.6,0.1,1.1-0.1,1.6c-0.2,0.4-0.6,0.7-1.2,0.9c-0.6,0.2-1.1,0.1-1.5-0.2c-0.4-0.3-0.7-0.7-0.8-1.3l-0.1-0.5l1.2-0.3
						l0.1,0.6c0.1,0.5,0.4,0.7,0.8,0.6c0.4-0.1,0.6-0.4,0.4-0.9c-0.1-0.3-0.2-0.6-0.5-0.8c-0.2-0.2-0.6-0.4-1-0.6
						c-0.4-0.2-0.6-0.4-0.9-0.5c-0.2-0.2-0.4-0.4-0.6-0.6c-0.2-0.3-0.3-0.6-0.4-0.9C315.2,204.5,315.3,204,315.5,203.6z"/>
					<path class="st14" d="M324.3,207.1c0.2,0.6,0.1,1.1-0.1,1.6c-0.2,0.4-0.6,0.7-1.2,0.9c-0.6,0.2-1.1,0.1-1.5-0.2
						c-0.4-0.3-0.7-0.7-0.8-1.3l-1-4c-0.2-0.6-0.1-1.1,0.1-1.6c0.2-0.4,0.6-0.7,1.2-0.9c0.6-0.2,1.1-0.1,1.5,0.2
						c0.4,0.3,0.7,0.7,0.8,1.3l0.2,0.8l-1.2,0.3l-0.2-0.8c-0.1-0.5-0.4-0.7-0.8-0.6c-0.4,0.1-0.6,0.4-0.4,0.9l1.1,4.2
						c0.1,0.5,0.4,0.7,0.8,0.6c0.4-0.1,0.6-0.4,0.4-0.9l-0.3-1.1l1.2-0.3L324.3,207.1z"/>
					<path class="st14" d="M327.8,207.8c0-0.1-0.1-0.3-0.2-0.6l-0.3-1.2c-0.1-0.4-0.2-0.6-0.4-0.7c-0.2-0.1-0.4-0.1-0.7-0.1
						l-0.4,0.1l0.8,3.2l-1.2,0.3l-2-7.7l1.8-0.5c0.6-0.2,1.1-0.1,1.5,0.1c0.4,0.2,0.6,0.6,0.8,1.2l0.2,0.6c0.2,0.8,0.1,1.4-0.4,1.8
						c0.3,0,0.6,0.2,0.8,0.4c0.2,0.2,0.4,0.6,0.5,1l0.3,1.2c0.1,0.2,0.1,0.4,0.2,0.5s0.1,0.3,0.2,0.4l-1.2,0.3
						C328,208,327.9,207.9,327.8,207.8z M325.6,204.2l0.5-0.1c0.2-0.1,0.4-0.2,0.5-0.3c0.1-0.2,0.1-0.4,0-0.7l-0.2-0.8
						c-0.1-0.3-0.2-0.5-0.3-0.6c-0.1-0.1-0.3-0.1-0.5-0.1l-0.6,0.2L325.6,204.2z"/>
					<path class="st14" d="M329.1,199.6l2,7.7l-1.2,0.3l-2-7.7L329.1,199.6z"/>
					<path class="st14" d="M333.3,198.9c0.4,0.2,0.6,0.6,0.8,1.2l0.1,0.3c0.1,0.4,0.1,0.7,0.1,1c-0.1,0.3-0.2,0.5-0.4,0.7
						c0.7,0.1,1.1,0.6,1.3,1.4l0.2,0.6c0.2,0.6,0.1,1.1-0.1,1.5c-0.2,0.4-0.7,0.7-1.3,0.8l-1.9,0.5l-2-7.7l1.8-0.5
						C332.5,198.7,333,198.7,333.3,198.9z M332.1,202.2l0.5-0.1c0.2-0.1,0.4-0.2,0.5-0.3c0.1-0.2,0.1-0.4,0-0.7l-0.1-0.4
						c-0.1-0.3-0.2-0.5-0.3-0.6c-0.1-0.1-0.3-0.1-0.5-0.1l-0.6,0.2L332.1,202.2z M333,205.7l0.7-0.2c0.2-0.1,0.4-0.2,0.4-0.3
						c0.1-0.1,0.1-0.4,0-0.6l-0.2-0.7c-0.1-0.4-0.2-0.6-0.4-0.7c-0.2-0.1-0.4-0.1-0.7,0l-0.5,0.1L333,205.7z"/>
					<path class="st14" d="M338.2,200.7l0.3,1.1l-1.7,0.4l0.6,2.3l2.1-0.5l0.3,1.1l-3.3,0.9l-2-7.7l3.3-0.9l0.3,1.1L336,199l0.6,2.2
						L338.2,200.7z"/>
					<path class="st14" d="M340.5,196.6c0.6-0.2,1.1-0.1,1.5,0.1c0.4,0.2,0.7,0.7,0.8,1.3l1,3.9c0.2,0.6,0.1,1.1-0.1,1.5
						c-0.2,0.4-0.6,0.7-1.2,0.8l-1.9,0.5l-2-7.7L340.5,196.6z M341.5,203.4l0.7-0.2c0.2-0.1,0.3-0.2,0.4-0.3c0.1-0.1,0.1-0.4,0-0.6
						l-1-4c-0.1-0.3-0.2-0.4-0.3-0.5c-0.1-0.1-0.3-0.1-0.5-0.1l-0.7,0.2L341.5,203.4z"/>
				</g>
			</g>
			<path class="st3" d="M253,314.9c0,0-11.4-26.5-5.6-58.5"/>
			<path class="st3" d="M225.3,343.5c0,0-23,7-25.3,12.3c-2.3,5.3,10.3,0.8,10.3,0.8"/>
			<path class="st3" d="M239.4,235c0,0-21.2,21-35.3,26.6"/>
			<path class="st3" d="M170.1,229.4c0,0-3.9,28.3,10.5,33.7"/>
			<path class="st3" d="M129.3,286.6c0,0-0.1-37.1,7.3-48.6"/>
			<path class="st3" d="M126.6,248.8c0,0-2.1,23.1,2.6,30.6"/>
			<path class="st3" d="M111.4,292.1c0,0-16.1-5.5-19.4,1.3c-3.3,6.9,9.6,0.8,9.6,0.8"/>
			<path class="st3" d="M121.1,316.1c0,0-15.8,8.9-16.6,14"/>
			<path class="st3" d="M146.9,291.5c0,0,30.2,45.7,46.9,41.5"/>
			<path class="st3" d="M167.6,355.6c0,0-23.7,17.4-27.2,15.9"/>
			<path class="st8" d="M333.7,281.4c1.6-1.3,2.7-2.2,3-2.5C336.4,279.3,335.3,280.2,333.7,281.4z"/>
		</g>
	</g>
</g>
</svg>
