<?xml version="1.0" encoding="utf-8"?>
<!-- Generator: Adobe Illustrator 23.0.1, SVG Export Plug-In . SVG Version: 6.00 Build 0)  -->
<svg version="1.1" id="Layer_1" xmlns="http://www.w3.org/2000/svg" xmlns:xlink="http://www.w3.org/1999/xlink" x="0px" y="0px"
	 viewBox="0 0 300.2 452.2" style="enable-background:new 0 0 300.2 452.2;" xml:space="preserve">
<style type="text/css">
	.st0{fill:#12AB73;}
</style>
<title></title>
<g id="Train">
	<path class="st0" d="M300.2,340.1V55.2C300.2,24.7,275.5,0,245,0H55.2C24.7,0,0,24.7,0,55.2v284.9c0,9.4,7.7,17.1,17.1,17.1
		c0,0,0,0,0,0h26.8L2.4,426.3c-4.9,8.1-2.2,18.6,5.9,23.5c8.1,4.9,18.6,2.2,23.5-5.9l0,0l52-86.7h132.6l52,86.7
		c4.9,8.1,15.4,10.7,23.5,5.9s10.7-15.4,5.9-23.5l0,0l-41.5-69.1h26.8C292.5,357.2,300.2,349.5,300.2,340.1
		C300.2,340.1,300.2,340.1,300.2,340.1z M74.1,311.6c-15.7,0-28.5-12.8-28.5-28.5s12.8-28.5,28.5-28.5s28.5,12.8,28.5,28.5
		C102.6,298.8,89.8,311.6,74.1,311.6C74.1,311.6,74.1,311.6,74.1,311.6z M226.1,311.6c-15.7,0-28.5-12.8-28.5-28.5
		s12.8-28.5,28.5-28.5s28.5,12.8,28.5,28.5C254.6,298.8,241.8,311.6,226.1,311.6C226.1,311.6,226.1,311.6,226.1,311.6L226.1,311.6z
		 M266,209H34.2V91.2H266V209z"/>
</g>
</svg>
