<?xml version="1.0" encoding="utf-8"?>
<!-- Generator: Adobe Illustrator 23.0.1, SVG Export Plug-In . SVG Version: 6.00 Build 0)  -->
<svg version="1.1" id="Layer_1" xmlns="http://www.w3.org/2000/svg" xmlns:xlink="http://www.w3.org/1999/xlink" x="0px" y="0px"
	 viewBox="0 0 22 26" style="enable-background:new 0 0 22 26;" xml:space="preserve">
<title></title>
<g id="user_people_person_users_man">
	<path d="M18.7,13.2c-0.4-0.4-1-0.4-1.4,0c-0.4,0.4-0.4,1,0,1.4c1.7,1.7,2.7,4,2.7,6.4c0,1.2-3.5,3-9,3s-9-1.8-9-3
		c0-2.4,0.9-4.7,2.6-6.4c0.4-0.4,0.4-1,0-1.4c-0.4-0.4-1-0.4-1.4,0C1.1,15.3,0,18.1,0,21c0,3.3,5.7,5,11,5s11-1.8,11-5
		C22,18.1,20.8,15.2,18.7,13.2z"/>
	<path d="M11,14c3.9,0,7-3.1,7-7s-3.1-7-7-7S4,3.1,4,7S7.1,14,11,14z M11,2c2.8,0,5,2.2,5,5s-2.2,5-5,5S6,9.8,6,7S8.2,2,11,2z"/>
</g>
</svg>
